<svg id="Layer_1" data-name="Layer 1" xmlns="http://www.w3.org/2000/svg" viewBox="0 0 516 86"><defs><style>.cls-1{fill:#fff;}.cls-2{fill:#ed1c24;}.cls-3{fill:#fdfdfd;}.cls-4{fill:#fff200;}</style></defs><title>logo</title><path class="cls-1" d="M138.68359,42.2H134.4897l-9.55816-14.1V42.2h-4.19389V21.5h4.19389l9.55816,14.2V21.5h4.19389Z"/><path class="cls-1" d="M155.55667,38.1h-8.4853l-1.56052,4.2h-4.48648L148.827,21.8H153.606l7.80258,20.5h-4.48649Zm-1.26792-3.2-3.21857-8.8-3.21857,8.8Z"/><path class="cls-1" d="M178.18415,21.5v3.3h-5.85194V42.3h-4.19389V24.8h-5.85193V21.5Z"/><path class="cls-1" d="M184.81634,21.5V42.2h-4.19389V21.5Z"/><path class="cls-1" d="M203.93267,22.5a8.84425,8.84425,0,0,1,3.80375,3.8,12.169,12.169,0,0,1,1.463,5.5,10.6451,10.6451,0,0,1-5.26673,9.3,11.33088,11.33088,0,0,1-10.72855,0,8.84436,8.84436,0,0,1-3.80375-3.8,12.16884,12.16884,0,0,1-1.463-5.5,10.6451,10.6451,0,0,1,5.26673-9.3A11.33083,11.33083,0,0,1,203.93267,22.5Zm-8.58284,3.3a6.54961,6.54961,0,0,0-2.24325,2.4,9.1796,9.1796,0,0,0-.78026,3.6,7.73688,7.73688,0,0,0,.78026,3.6,5.83308,5.83308,0,0,0,2.24325,2.4,6.8825,6.8825,0,0,0,6.53465,0,6.54961,6.54961,0,0,0,2.24325-2.4,9.17961,9.17961,0,0,0,.78026-3.6,7.73691,7.73691,0,0,0-.78026-3.6,5.833,5.833,0,0,0-2.24325-2.4A6.88245,6.88245,0,0,0,195.34983,25.8Z"/><path class="cls-1" d="M230.46143,42.2h-4.19389l-9.55816-14.1V42.2h-4.19389V21.5h4.19389l9.55816,14.2V21.5h4.19389Z"/><path class="cls-1" d="M247.237,38.1h-8.4853l-1.56053,4.2h-4.48649l7.80258-20.5h4.77908l7.80258,20.5h-4.48649Zm-1.26792-3.2-3.21857-8.8-3.21857,8.8Z"/><path class="cls-1" d="M259.62357,39.1H266.841v3.2H255.42968V21.5h4.19389Z"/><path class="cls-1" d="M293.46725,21.5V42.2h-4.29141v-9h-9.168v9h-4.19389V21.5h4.19389v8.4h9.168V21.5Z"/><path class="cls-1" d="M301.66,24.8v5.4h7.51v3.2h-7.51V39h8.38778v3.3h-12.6792V21.5h12.6792v3.3Z"/><path class="cls-1" d="M326.14056,38.1h-8.48532l-1.56052,4.2h-4.48649l7.80258-20.5h4.77907l7.80258,20.5H327.506Zm-1.17037-3.2-3.21856-8.8-3.21855,8.8Z"/><path class="cls-1" d="M338.6247,39.1h7.21738v3.2H334.4308V21.5h4.19387V39.1Z"/><path class="cls-1" d="M362.71515,21.5v3.3h-5.85194V42.3h-4.19387V24.8H346.8174V21.5Z"/><path class="cls-1" d="M382.61172,21.5V42.2h-4.29141v-9h-9.168v9h-4.19387V21.5h4.19387v8.4h9.168V21.5Z"/><path class="cls-1" d="M415.96776,21.7V42.2h-4.19388V27.9l-5.46181,14.3h-3.70621L397.33909,28V42.3h-4.19387V21.7h5.1692L404.654,37.1l6.24206-15.4Z"/><path class="cls-1" d="M424.06292,21.5V42.2h-4.19387V21.5Z"/><path class="cls-1" d="M441.71626,39.5a5.91015,5.91015,0,0,1-2.34076,2.1,8.81818,8.81818,0,0,1-3.90129.8,10.88137,10.88137,0,0,1-3.99883-.7,6.29492,6.29492,0,0,1-2.82843-2.2,6.85632,6.85632,0,0,1-1.26791-3.3h4.48649a3.14085,3.14085,0,0,0,1.07286,2.1,2.94725,2.94725,0,0,0,2.34077.8,3.18737,3.18737,0,0,0,2.04818-.7,2.44338,2.44338,0,0,0,.68274-1.8,2.30411,2.30411,0,0,0-.5852-1.6,3.85376,3.85376,0,0,0-1.463-1c-.5852-.3-1.36545-.5-2.34077-.9a22.73905,22.73905,0,0,1-3.31609-1.3,6.335,6.335,0,0,1-2.14572-1.8,5.71852,5.71852,0,0,1-.87779-3.1,4.821,4.821,0,0,1,1.95065-4.2,8.33,8.33,0,0,1,5.26673-1.5,8.51665,8.51665,0,0,1,5.36428,1.6,5.65611,5.65611,0,0,1,2.24323,4.2h-4.48649a3.13213,3.13213,0,0,0-.87779-1.8,2.80972,2.80972,0,0,0-2.14572-.7,2.95115,2.95115,0,0,0-1.85311.6,2.62275,2.62275,0,0,0-.19507,3.3,3.85376,3.85376,0,0,0,1.463,1c.68274.3,1.56052.6,2.34077.9a32.8773,32.8773,0,0,1,3.31609,1.3,5.01045,5.01045,0,0,1,2.14572,1.9,6.32187,6.32187,0,0,1,.87779,3.2A8.01508,8.01508,0,0,1,441.71626,39.5Z"/><path class="cls-1" d="M459.46714,39.5a5.91015,5.91015,0,0,1-2.34076,2.1,8.81818,8.81818,0,0,1-3.90129.8,10.88137,10.88137,0,0,1-3.99883-.7,6.29492,6.29492,0,0,1-2.82843-2.2,6.85662,6.85662,0,0,1-1.26791-3.3h4.48649a3.14085,3.14085,0,0,0,1.07286,2.1,2.94725,2.94725,0,0,0,2.34077.8,3.18737,3.18737,0,0,0,2.04818-.7,2.44338,2.44338,0,0,0,.68274-1.8,2.30411,2.30411,0,0,0-.5852-1.6,3.85376,3.85376,0,0,0-1.463-1c-.5852-.3-1.36545-.5-2.34077-.9a22.73905,22.73905,0,0,1-3.31609-1.3A6.335,6.335,0,0,1,445.9102,30a5.71852,5.71852,0,0,1-.87779-3.1,4.821,4.821,0,0,1,1.95065-4.2,8.33,8.33,0,0,1,5.26673-1.5,8.51665,8.51665,0,0,1,5.36428,1.6A5.65611,5.65611,0,0,1,459.8573,27h-4.584a3.13207,3.13207,0,0,0-.87779-1.8,2.80971,2.80971,0,0,0-2.14572-.7,2.95112,2.95112,0,0,0-1.8531.6,2.62274,2.62274,0,0,0-.19508,3.3,3.85376,3.85376,0,0,0,1.463,1c.68274.3,1.56053.6,2.34077.9a32.8773,32.8773,0,0,1,3.31609,1.3,5.01039,5.01039,0,0,1,2.14572,1.9,6.32187,6.32187,0,0,1,.87779,3.2A6.247,6.247,0,0,1,459.46714,39.5Z"/><path class="cls-1" d="M467.65985,21.5V42.2H463.466V21.5Z"/><path class="cls-1" d="M486.87371,22.5a8.84409,8.84409,0,0,1,3.80375,3.8,12.16884,12.16884,0,0,1,1.463,5.5,10.6451,10.6451,0,0,1-5.26673,9.3,11.33088,11.33088,0,0,1-10.72855,0,8.84425,8.84425,0,0,1-3.80375-3.8,12.169,12.169,0,0,1-1.463-5.5,10.6451,10.6451,0,0,1,5.26673-9.3A11.33214,11.33214,0,0,1,486.87371,22.5Zm-8.58286,3.3a6.54972,6.54972,0,0,0-2.24323,2.4,9.17958,9.17958,0,0,0-.78024,3.6,7.73736,7.73736,0,0,0,.78024,3.6,5.83316,5.83316,0,0,0,2.24323,2.4,6.88256,6.88256,0,0,0,6.53468,0,6.54964,6.54964,0,0,0,2.24323-2.4,9.17959,9.17959,0,0,0,.78024-3.6,7.73726,7.73726,0,0,0-.78024-3.6,5.833,5.833,0,0,0-2.24323-2.4,6.88179,6.88179,0,0,0-6.53468,0Z"/><path class="cls-1" d="M513.30492,42.2h-4.19387L499.5529,28.1V42.2H495.359V21.5h4.19387l9.55815,14.2V21.5h4.19387Z"/><path class="cls-1" d="M128.93036,62.6a4.52841,4.52841,0,0,1-1.95064,1.9,6.70485,6.70485,0,0,1-3.121.6H120.25V54.5h3.60869a8.2648,8.2648,0,0,1,3.121.6,4.03776,4.03776,0,0,1,1.95064,1.9,5.72376,5.72376,0,0,1,0,5.6Zm-2.1457,0a4.3393,4.3393,0,0,0,0-5.6,4.79316,4.79316,0,0,0-3.0235-1h-1.75558v7.6h1.75558a4.79316,4.79316,0,0,0,3.0235-1Z"/><path class="cls-1" d="M139.26879,61.2h-6.6322a2.39343,2.39343,0,0,0,.78026,1.9,2.87149,2.87149,0,0,0,3.21857.2,2.09572,2.09572,0,0,0,.78026-1.1h1.95065a3.38621,3.38621,0,0,1-2.14571,2.6,4.55008,4.55008,0,0,1-1.95065.4,6.06527,6.06527,0,0,1-2.24324-.5,2.72465,2.72465,0,0,1-1.463-1.5,4.81246,4.81246,0,0,1,0-4.6,4.25565,4.25565,0,0,1,1.463-1.5,4.8489,4.8489,0,0,1,4.389,0,3.34021,3.34021,0,0,1,1.463,1.4,5.22852,5.22852,0,0,1,.39013,2.7Zm-2.04819-2.1a2.32342,2.32342,0,0,0-.87779-.8,2.54555,2.54555,0,0,0-1.17038-.3,2.67988,2.67988,0,0,0-1.75558.6,2.592,2.592,0,0,0-.78027,1.9h4.77909A2.35156,2.35156,0,0,0,137.2206,59.1Z"/><path class="cls-1" d="M147.94915,57.2a2.56317,2.56317,0,0,1,1.36545,1.5,5.42154,5.42154,0,0,1,0,4.6,3.97192,3.97192,0,0,1-1.36545,1.5,4.445,4.445,0,0,1-4.09635,0,2.61356,2.61356,0,0,1-1.17038-1.5v5.9H140.8293V56.7h1.85312v2a3.47724,3.47724,0,0,1,1.17038-1.5,2.7646,2.7646,0,0,1,2.04818-.5A3.13625,3.13625,0,0,1,147.94915,57.2Zm-3.90129,1.3a2.15452,2.15452,0,0,0-.97532.9,3.73912,3.73912,0,0,0,0,2.9,1.76125,1.76125,0,0,0,.97532.9,2.942,2.942,0,0,0,1.26792.3,2.76906,2.76906,0,0,0,1.95065-.7,3.23533,3.23533,0,0,0,0-4.1,2.6175,2.6175,0,0,0-1.95065-.7C144.92565,58.2,144.53552,58.3,144.04786,58.5Z"/><path class="cls-1" d="M156.92211,57.3a2.61347,2.61347,0,0,1,1.17039,1.5v-2h1.8531v8.3h-1.8531v-2a3.47719,3.47719,0,0,1-1.17039,1.5,2.76455,2.76455,0,0,1-2.04818.5,4.76885,4.76885,0,0,1-2.04818-.5,2.56317,2.56317,0,0,1-1.36545-1.5,5.42154,5.42154,0,0,1,0-4.6,3.97184,3.97184,0,0,1,1.36545-1.5,3.48513,3.48513,0,0,1,2.04818-.5A4.02451,4.02451,0,0,1,156.92211,57.3ZM153.606,58.9a3.23533,3.23533,0,0,0,0,4.1,2.61752,2.61752,0,0,0,1.95065.7,2.64545,2.64545,0,0,0,1.26792-.3,2.15457,2.15457,0,0,0,.97532-.9,3.73914,3.73914,0,0,0,0-2.9,1.76125,1.76125,0,0,0-.97532-.9,3.29774,3.29774,0,0,0-1.26792-.3A1.75235,1.75235,0,0,0,153.606,58.9Z"/><path class="cls-1" d="M165.01729,57.1a3.66443,3.66443,0,0,1,1.85311-.5v1.9h-.48766a4.70228,4.70228,0,0,0-1.95065.5,2.43534,2.43534,0,0,0-.78026,1.9v4.3h-1.8531V56.9h1.8531v1.7A3.38272,3.38272,0,0,1,165.01729,57.1Z"/><path class="cls-1" d="M172.42975,63.6v1.5h-1.07286a2.3647,2.3647,0,0,1-2.73091-2V58.2H167.4556V56.7H168.626V54.6h1.85311v2.1h2.04818v1.5h-2.04818v4.2a1.419,1.419,0,0,0,.2926.9,1.84824,1.84824,0,0,0,.97532.3Z"/><path class="cls-1" d="M187.15711,57.6a3.83111,3.83111,0,0,1,.97532,2.7v4.9h-1.8531V60.5a2.66524,2.66524,0,0,0-.48767-1.7,2.122,2.122,0,0,0-1.463-.6,2.0315,2.0315,0,0,0-1.56052.6,3.20533,3.20533,0,0,0-.68272,1.9v4.5h-1.85311V60.5a2.66529,2.66529,0,0,0-.48766-1.7,2.122,2.122,0,0,0-1.463-.6,2.0315,2.0315,0,0,0-1.56052.6,3.20533,3.20533,0,0,0-.68272,1.9v4.5h-1.85311V56.9h1.85311v1.8a2.85645,2.85645,0,0,1,1.07286-1.4,3.66431,3.66431,0,0,1,1.85311-.5,3.95668,3.95668,0,0,1,1.8531.5,2.61353,2.61353,0,0,1,1.17039,1.5,3.47724,3.47724,0,0,1,1.17038-1.5,3.66433,3.66433,0,0,1,1.85311-.5C185.69413,56.5,186.57193,57,187.15711,57.6Z"/><path class="cls-1" d="M198.08073,61.2h-6.63219a2.39343,2.39343,0,0,0,.78026,1.9,2.87149,2.87149,0,0,0,3.21857.2,2.09574,2.09574,0,0,0,.78026-1.1h1.95064a3.38617,3.38617,0,0,1-2.14571,2.6,4.55007,4.55007,0,0,1-1.95064.4,6.06527,6.06527,0,0,1-2.24324-.5,2.72463,2.72463,0,0,1-1.463-1.5,4.81246,4.81246,0,0,1,0-4.6,4.2556,4.2556,0,0,1,1.463-1.5,4.8489,4.8489,0,0,1,4.38895,0,3.34016,3.34016,0,0,1,1.463,1.4,4.38972,4.38972,0,0,1,.39012,2.7Zm-2.04818-2.1a2.32346,2.32346,0,0,0-.87778-.8,2.54559,2.54559,0,0,0-1.17039-.3,2.67988,2.67988,0,0,0-1.75558.6,2.592,2.592,0,0,0-.78026,1.9h4.77907A1.79488,1.79488,0,0,0,196.03255,59.1Z"/><path class="cls-1" d="M207.0537,57.6a3.37476,3.37476,0,0,1,.87778,2.7v4.9h-1.85311V60.5a2.78331,2.78331,0,0,0-.68272-1.8,2.18408,2.18408,0,0,0-1.56052-.6,2.87444,2.87444,0,0,0-1.75558.6,3.27168,3.27168,0,0,0-.68273,2v4.5h-1.8531V56.9h1.8531v1.9a3.47727,3.47727,0,0,1,1.17039-1.5,3.6643,3.6643,0,0,1,1.8531-.5A2.94325,2.94325,0,0,1,207.0537,57.6Z"/><path class="cls-1" d="M214.27108,63.6v1.5h-1.07286a2.3647,2.3647,0,0,1-2.73091-2V58.2h-1.26792V56.7h1.17038V54.6h1.85311v2.1h2.04818v1.5h-2.04818v4.2a1.419,1.419,0,0,0,.2926.9,1.84824,1.84824,0,0,0,.97532.3Z"/><path class="cls-1" d="M225.77988,57.2a3.27035,3.27035,0,0,1,1.56053,1.5,4.81244,4.81244,0,0,1,0,4.6,3.83622,3.83622,0,0,1-1.56053,1.5,5.6651,5.6651,0,0,1-2.24324.5,6.06537,6.06537,0,0,1-2.24325-.5,3.27037,3.27037,0,0,1-1.56052-1.5,4.65461,4.65461,0,0,1-.48766-2.3,6.05912,6.05912,0,0,1,.48766-2.3,3.83625,3.83625,0,0,1,1.56052-1.5,5.66518,5.66518,0,0,1,2.24325-.5A4.57947,4.57947,0,0,1,225.77988,57.2Zm-3.60869,1.2a2.15457,2.15457,0,0,0-.97532.9,4.24963,4.24963,0,0,0,0,3.1,1.76125,1.76125,0,0,0,.97532.9,2.82939,2.82939,0,0,0,2.53585,0,2.15457,2.15457,0,0,0,.97532-.9,4.24963,4.24963,0,0,0,0-3.1,1.76125,1.76125,0,0,0-.97532-.9A3.68211,3.68211,0,0,0,222.17119,58.4Z"/><path class="cls-1" d="M232.02194,55.4a1.77453,1.77453,0,0,0-.39012,1.2v.1h1.95064v1.5h-1.95064v6.9h-1.85311V58.2h-1.17038V56.7h1.17038v-.3a2.75848,2.75848,0,0,1,.97532-2.3,3.82973,3.82973,0,0,1,2.73091-.6v1.6A1.96792,1.96792,0,0,0,232.02194,55.4Z"/><path class="cls-1" d="M247.33452,54.5V65.2h-1.85311V60.3H240.3122v4.8h-1.85311V54.5h1.85311V59h5.16921V54.5Z"/><path class="cls-1" d="M257.38032,61.2h-6.63219a2.39343,2.39343,0,0,0,.78026,1.9,2.87149,2.87149,0,0,0,3.21857.2,2.09578,2.09578,0,0,0,.78026-1.1h1.95064a3.38618,3.38618,0,0,1-2.1457,2.6,4.55014,4.55014,0,0,1-1.95065.4,6.06527,6.06527,0,0,1-2.24324-.5,2.72463,2.72463,0,0,1-1.463-1.5,4.81246,4.81246,0,0,1,0-4.6,4.2556,4.2556,0,0,1,1.463-1.5,4.8489,4.8489,0,0,1,4.38895,0,3.34016,3.34016,0,0,1,1.463,1.4,5.22851,5.22851,0,0,1,.39012,2.7Zm-2.04816-2.1a2.32349,2.32349,0,0,0-.87779-.8A2.54552,2.54552,0,0,0,253.284,58a2.67992,2.67992,0,0,0-1.75559.6,2.592,2.592,0,0,0-.78026,1.9h4.77908A2.35155,2.35155,0,0,0,255.33216,59.1Z"/><path class="cls-1" d="M264.50018,57.3a2.61355,2.61355,0,0,1,1.17039,1.5v-2h1.8531v8.3h-1.8531v-2a3.47734,3.47734,0,0,1-1.17039,1.5,2.76455,2.76455,0,0,1-2.04818.5,4.76882,4.76882,0,0,1-2.04818-.5,2.56308,2.56308,0,0,1-1.36545-1.5,5.42161,5.42161,0,0,1,0-4.6,3.97192,3.97192,0,0,1,1.36545-1.5,3.48509,3.48509,0,0,1,2.04818-.5A3.44815,3.44815,0,0,1,264.50018,57.3Zm-3.31609,1.6a3.23533,3.23533,0,0,0,0,4.1,2.61749,2.61749,0,0,0,1.95065.7,2.64545,2.64545,0,0,0,1.26792-.3,2.15457,2.15457,0,0,0,.97532-.9,3.73923,3.73923,0,0,0,0-2.9,1.76125,1.76125,0,0,0-.97532-.9,3.29778,3.29778,0,0,0-1.26792-.3A1.70829,1.70829,0,0,0,261.18409,58.9Z"/><path class="cls-1" d="M271.32744,53.9V65.1h-1.85311V53.9Z"/><path class="cls-1" d="M277.76456,63.6v1.5H276.6917a2.3647,2.3647,0,0,1-2.73091-2V58.2h-1.17038V56.7h1.17038V54.6h1.85311v2.1h2.04817v1.5h-2.04819v4.2a1.419,1.419,0,0,0,.2926.9,1.84828,1.84828,0,0,0,.97534.3Z"/><path class="cls-1" d="M286.64,57.6a3.37472,3.37472,0,0,1,.87778,2.7v4.9h-1.85311V60.5a2.78332,2.78332,0,0,0-.68273-1.8,2.18411,2.18411,0,0,0-1.56052-.6,2.87441,2.87441,0,0,0-1.75557.6,3.27168,3.27168,0,0,0-.68274,2v4.5H279.13V53.9h1.85311v4.7a3.47744,3.47744,0,0,1,1.1704-1.5,3.66435,3.66435,0,0,1,1.8531-.5A3.90692,3.90692,0,0,1,286.64,57.6Z"/><path class="cls-1" d="M300.87971,65.1l-2.04818-2.3c0,.2-.09754.3-.09754.5a2.19324,2.19324,0,0,1-.97532,1.4,3.30629,3.30629,0,0,1-1.75557.5,4.13781,4.13781,0,0,1-1.85311-.4,2.87725,2.87725,0,0,1-1.56052-2.8,3.8895,3.8895,0,0,1,.39012-1.7,2.61963,2.61963,0,0,1,1.07286-1,2.42969,2.42969,0,0,1,1.463-.3h.09754l-.19508-.3a4.08406,4.08406,0,0,1-.48766-.9,3.02332,3.02332,0,0,1-.19508-1,2.05453,2.05453,0,0,1,.29259-1.1,1.76128,1.76128,0,0,1,.97532-.9,4.32126,4.32126,0,0,1,1.56052-.3,4.0984,4.0984,0,0,1,2.14572.6,3.67408,3.67408,0,0,1,.97532,1.6,3.48432,3.48432,0,0,1,.09754,1H299.0266v-.5a1.30105,1.30105,0,0,0-.39012-1,1.25955,1.25955,0,0,0-.97532-.3,1.84821,1.84821,0,0,0-.97532.3,1.152,1.152,0,0,0-.29259.8.96937.96937,0,0,0,.19508.7,3.03908,3.03908,0,0,0,.48766.7l5.65686,6.8Zm-3.6087-1.8a1.67686,1.67686,0,0,0,.48766-1.2,1.64072,1.64072,0,0,0-.29259-.9,2.28693,2.28693,0,0,0-1.56052-.9,1.6759,1.6759,0,0,0-1.1704.4,1.8173,1.8173,0,0,0,.09754,2.6,2.02535,2.02535,0,0,0,1.26791.5,2.471,2.471,0,0,0,1.1704-.5Z"/><path class="cls-1" d="M313.949,54.5v1.4h-4.68154v3.3h3.80375v1.4h-3.80375v4.7h-1.85311V54.5Z"/><path class="cls-1" d="M320.87382,57.3a2.6136,2.6136,0,0,1,1.1704,1.5v-2h1.85311v8.3h-1.85311v-2a3.47744,3.47744,0,0,1-1.1704,1.5,2.76454,2.76454,0,0,1-2.04818.5,4.76893,4.76893,0,0,1-2.04819-.5,2.56306,2.56306,0,0,1-1.36544-1.5,5.42147,5.42147,0,0,1,0-4.6,3.97165,3.97165,0,0,1,1.36544-1.5,4.76882,4.76882,0,0,1,2.04819-.5A3.44813,3.44813,0,0,1,320.87382,57.3Zm-3.31609,1.6a3.23533,3.23533,0,0,0,0,4.1,2.61752,2.61752,0,0,0,1.95065.7,3.37,3.37,0,0,0,1.36544-.3,2.15462,2.15462,0,0,0,.97532-.9,3.73914,3.73914,0,0,0,0-2.9,1.76128,1.76128,0,0,0-.97532-.9,3.37,3.37,0,0,0-1.36544-.3A1.796,1.796,0,0,0,317.55773,58.9Z"/><path class="cls-1" d="M339.11236,57.6a3.831,3.831,0,0,1,.97532,2.7v4.9h-1.8531V60.5a2.66529,2.66529,0,0,0-.48766-1.7,2.122,2.122,0,0,0-1.463-.6,2.03146,2.03146,0,0,0-1.56052.6,3.20535,3.20535,0,0,0-.68274,1.9v4.5h-1.8531V60.5a2.66529,2.66529,0,0,0-.48766-1.7,2.122,2.122,0,0,0-1.463-.6,2.03144,2.03144,0,0,0-1.56052.6,3.20535,3.20535,0,0,0-.68274,1.9v4.5h-1.8531V56.9h1.8531v1.8a2.85657,2.85657,0,0,1,1.07286-1.4,3.66436,3.66436,0,0,1,1.85311-.5,3.95681,3.95681,0,0,1,1.85311.5,2.61366,2.61366,0,0,1,1.1704,1.5,3.47734,3.47734,0,0,1,1.17039-1.5,3.66439,3.66439,0,0,1,1.85311-.5C337.55184,56.5,338.52716,57,339.11236,57.6Z"/><path class="cls-1" d="M342.13584,53.6a1.17422,1.17422,0,0,1,.87778-.3,1.33989,1.33989,0,0,1,.87779.3.98368.98368,0,0,1,0,1.4,1.17426,1.17426,0,0,1-.87779.3,1.33987,1.33987,0,0,1-.87778-.3.98366.98366,0,0,1,0-1.4Zm1.65806,3.1V65h-1.85311V56.7Z"/><path class="cls-1" d="M347.79273,53.9V65.1h-1.85311V53.9Z"/><path class="cls-1" d="M350.91374,56.7l2.53584,6.1,2.34077-6.1H357.741L352.5718,69h-1.95065l1.85311-4.2-3.6087-8.1Z"/><path class="cls-1" d="M376.4672,54.5l-2.73089,10.7h-2.14572L369.24982,57l-2.34077,8.2h-2.14572l-2.73089-10.7h1.95064l1.95065,8.6,2.4383-8.6h1.95065l2.43831,8.6,1.95064-8.6Z"/><path class="cls-1" d="M385.92784,61.2h-6.63218a2.39351,2.39351,0,0,0,.78024,1.9,2.87147,2.87147,0,0,0,3.21856.2,2.09557,2.09557,0,0,0,.78024-1.1h1.95065a3.38622,3.38622,0,0,1-2.14572,2.6,4.55011,4.55011,0,0,1-1.95065.4,6.06523,6.06523,0,0,1-2.24323-.5,2.72452,2.72452,0,0,1-1.463-1.5,4.81251,4.81251,0,0,1,0-4.6,4.2554,4.2554,0,0,1,1.463-1.5,4.8489,4.8489,0,0,1,4.389,0,3.34013,3.34013,0,0,1,1.463,1.4,4.31315,4.31315,0,0,1,.48766,2A1.51712,1.51712,0,0,1,385.92784,61.2Zm-1.95065-2.1a2.32353,2.32353,0,0,0-.87778-.8,2.54551,2.54551,0,0,0-1.1704-.3,2.67981,2.67981,0,0,0-1.75557.6,2.592,2.592,0,0,0-.78024,1.9h4.77907A2.35187,2.35187,0,0,0,383.97719,59.1Z"/><path class="cls-1" d="M389.439,53.9V65.1h-1.85311V53.9Z"/><path class="cls-1" d="M394.12054,55.4a1.77463,1.77463,0,0,0-.39012,1.2v.1h1.95064v1.5h-1.95064v6.9h-1.85311V58.2h-1.1704V56.7h1.1704v-.3a2.75845,2.75845,0,0,1,.97532-2.3,3.82969,3.82969,0,0,1,2.73089-.6v1.6A1.884,1.884,0,0,0,394.12054,55.4Z"/><path class="cls-1" d="M402.41078,57.3a2.6136,2.6136,0,0,1,1.1704,1.5v-2h1.85311v8.3h-1.85311v-2a3.47744,3.47744,0,0,1-1.1704,1.5,2.76454,2.76454,0,0,1-2.04818.5,4.76885,4.76885,0,0,1-2.04818-.5,2.563,2.563,0,0,1-1.36545-1.5,5.42147,5.42147,0,0,1,0-4.6,3.97168,3.97168,0,0,1,1.36545-1.5,4.76875,4.76875,0,0,1,2.04818-.5A3.44821,3.44821,0,0,1,402.41078,57.3Zm-3.21858,1.6a3.23533,3.23533,0,0,0,0,4.1,2.61751,2.61751,0,0,0,1.95064.7,3.37,3.37,0,0,0,1.36545-.3,2.15462,2.15462,0,0,0,.97532-.9,3.73914,3.73914,0,0,0,0-2.9,1.76128,1.76128,0,0,0-.97532-.9,3.37,3.37,0,0,0-1.36545-.3A1.7083,1.7083,0,0,0,399.1922,58.9Z"/><path class="cls-1" d="M410.60348,57.1a3.66449,3.66449,0,0,1,1.85311-.5v1.9h-.48766a4.70225,4.70225,0,0,0-1.95065.5,2.43533,2.43533,0,0,0-.78024,1.9v4.3h-1.85311V56.9H409.238v1.7A3.38246,3.38246,0,0,1,410.60348,57.1Z"/><path class="cls-1" d="M421.52711,61.2h-6.63218a2.39351,2.39351,0,0,0,.78024,1.9,2.87145,2.87145,0,0,0,3.21855.2,2.09554,2.09554,0,0,0,.78025-1.1h1.95065a3.38622,3.38622,0,0,1-2.14573,2.6,4.55,4.55,0,0,1-1.95064.4,6.06523,6.06523,0,0,1-2.24323-.5,2.72452,2.72452,0,0,1-1.463-1.5,4.81251,4.81251,0,0,1,0-4.6,4.2554,4.2554,0,0,1,1.463-1.5,4.8489,4.8489,0,0,1,4.389,0,3.34006,3.34006,0,0,1,1.463,1.4,4.313,4.313,0,0,1,.48767,2A.60368.60368,0,0,1,421.52711,61.2Zm-1.95065-2.1a2.32353,2.32353,0,0,0-.87778-.8,2.54554,2.54554,0,0,0-1.1704-.3,2.67981,2.67981,0,0,0-1.75557.6,2.592,2.592,0,0,0-.78025,1.9h4.77908A2.35187,2.35187,0,0,0,419.57646,59.1Z"/><path class="cls-1" d="M424.74566,65.4a2.33855,2.33855,0,0,1-.39012,1.4,1.41409,1.41409,0,0,1-1.36545.5v-.7a.7355.7355,0,0,0,.48766-.2,1.446,1.446,0,0,0,.19508-.6v-.1h-.97532V64h1.75556A2.96543,2.96543,0,0,1,424.74566,65.4Z"/><path class="cls-1" d="M438.2051,55.3a4.76118,4.76118,0,0,1,1.75557,2.6h-1.85311a3.89216,3.89216,0,0,0-1.1704-1.4,4.0433,4.0433,0,0,0-1.95065-.5,3.06062,3.06062,0,0,0-1.8531.5,2.94441,2.94441,0,0,0-1.26791,1.4,4.87158,4.87158,0,0,0-.39012,2,5.02711,5.02711,0,0,0,.39012,2.1,5.65386,5.65386,0,0,0,1.26791,1.4,3.44345,3.44345,0,0,0,1.95064.4,3.695,3.695,0,0,0,2.34077-.8,3.49909,3.49909,0,0,0,1.1704-2.3h-4.09637V59.5h5.55935V61a5.21858,5.21858,0,0,1-.87778,2.2,6.07541,6.07541,0,0,1-1.85311,1.6,5.88389,5.88389,0,0,1-2.53584.6,5.071,5.071,0,0,1-2.73089-.7,4.256,4.256,0,0,1-1.95065-2,6.28263,6.28263,0,0,1,0-5.6,4.05946,4.05946,0,0,1,1.95065-1.9,5.55482,5.55482,0,0,1,2.73089-.7A4.42058,4.42058,0,0,1,438.2051,55.3Z"/><path class="cls-1" d="M448.1534,57.2a3.27024,3.27024,0,0,1,1.56052,1.5,4.81249,4.81249,0,0,1,0,4.6,3.83619,3.83619,0,0,1-1.56052,1.5,5.055,5.055,0,0,1-4.48649,0,3.27011,3.27011,0,0,1-1.56052-1.5,4.65446,4.65446,0,0,1-.48766-2.3,6.05931,6.05931,0,0,1,.48766-2.3,3.83607,3.83607,0,0,1,1.56052-1.5A5.055,5.055,0,0,1,448.1534,57.2Zm-3.51117,1.2a2.15462,2.15462,0,0,0-.97532.9,4.24963,4.24963,0,0,0,0,3.1,1.76128,1.76128,0,0,0,.97532.9,2.82937,2.82937,0,0,0,2.53584,0,2.15464,2.15464,0,0,0,.97533-.9,4.24963,4.24963,0,0,0,0-3.1,1.76131,1.76131,0,0,0-.97533-.9A3.68209,3.68209,0,0,0,444.64223,58.4Z"/><path class="cls-1" d="M455.37078,63.3l2.4383-6.6h1.95065L456.44364,65h-2.14572l-3.31609-8.3h1.95064Z"/><path class="cls-1" d="M465.31908,63.6v1.5h-1.07286a2.41683,2.41683,0,0,1-2.73089-2V58.2h-1.1704V56.7h1.1704V54.6h1.8531v2.1h2.04819v1.5h-2.14573v4.2a1.41908,1.41908,0,0,0,.29259.9,1.84824,1.84824,0,0,0,.97532.3Z"/><path class="cls-1" d="M468.44009,63.2v1.9h-2.04818V63.2Z"/><path class="cls-1" d="M479.75384,57.2a3.2702,3.2702,0,0,1,1.56052,1.5,4.81249,4.81249,0,0,1,0,4.6,3.83607,3.83607,0,0,1-1.56052,1.5,5.055,5.055,0,0,1-4.48649,0,3.27011,3.27011,0,0,1-1.56052-1.5,4.65446,4.65446,0,0,1-.48766-2.3,6.05931,6.05931,0,0,1,.48766-2.3,3.83607,3.83607,0,0,1,1.56052-1.5A5.055,5.055,0,0,1,479.75384,57.2Zm-3.51117,1.2a2.15467,2.15467,0,0,0-.97532.9,4.24963,4.24963,0,0,0,0,3.1,1.76132,1.76132,0,0,0,.97532.9,2.82939,2.82939,0,0,0,2.53585,0,2.15467,2.15467,0,0,0,.97532-.9,4.24963,4.24963,0,0,0,0-3.1,1.76132,1.76132,0,0,0-.97532-.9A3.6849,3.6849,0,0,0,476.24267,58.4Z"/><path class="cls-1" d="M486.09343,55.4a1.77463,1.77463,0,0,0-.39012,1.2v.1H487.654v1.5h-1.95065v6.9H483.8502V58.2h-1.17039V56.7h1.17039v-.3a2.75846,2.75846,0,0,1,.97533-2.3,3.82966,3.82966,0,0,1,2.73089-.6v1.6A1.80077,1.80077,0,0,0,486.09343,55.4Z"/><path class="cls-1" d="M494.28614,54.5v6.3a2.51193,2.51193,0,0,0,4.29144,2.1,3.37757,3.37757,0,0,0,.68274-2.1V54.5h1.8531v6.3a4.19912,4.19912,0,0,1-1.1704,3.3,4.96069,4.96069,0,0,1-3.121,1.1,4.06241,4.06241,0,0,1-3.0235-1.1,4.19935,4.19935,0,0,1-1.1704-3.3V54.5Z"/><path class="cls-1" d="M504.42951,63.2v1.9h-2.04818V63.2Z"/><path class="cls-1" d="M507.7456,60.9v4.2h-1.8531V54.5h3.70621a4.357,4.357,0,0,1,2.926.8,3.44054,3.44054,0,0,1,0,4.8,3.989,3.989,0,0,1-2.73089.8Zm3.90129-3.2a1.90027,1.90027,0,0,0-.48766-1.4,3.0625,3.0625,0,0,0-1.75557-.5h-1.8531v3.7h1.8531c1.5605.1,2.24323-.6,2.24323-1.8Z"/><path class="cls-2" d="M99.04488,54.496a40.7173,40.7173,0,0,1-1.14109,9.99882A36.86372,36.86372,0,0,1,94.11256,74.105c-.94557,1.65692-1.93459,3.28181-3.014,4.83812A3.30618,3.30618,0,0,1,88.405,80.54116a45.28782,45.28782,0,0,1-5.26506-.13511c-.46713-.03255-.93552-.05957-1.40335-.05993-5.53822-.00411-11.0769-.051-16.6145.01366-3.92558.04583-7.851-.01793-11.77574.04755-6.06561.10117-12.13126.03484-18.19678.03256-1.4199-.00053-2.84183-.04722-4.2622-.03069-1.47312.01713-2.94191.15892-4.41176.27531a21.73239,21.73239,0,0,1-5.47288-.01721,2.29188,2.29188,0,0,1-1.22042-.70774,17.856,17.856,0,0,1-2.23511-2.92832,41.06119,41.06119,0,0,1-3.34266-6.21562,40.6384,40.6384,0,0,1-2.36306-7.299,47.20757,47.20757,0,0,1-.7635-4.699c-.07656-.6511-.06047-1.31483-.1159-1.96979-.04913-.58047-.06042-1.16017-.05765-1.74155A39.98992,39.98992,0,0,1,12.136,45.42237a40.6399,40.6399,0,0,1,2.90045-7.86773,41.91743,41.91743,0,0,1,13.63784-15.952,42.88148,42.88148,0,0,1,4.0574-2.526,48.44658,48.44658,0,0,1,5.36389-2.48092,44.38357,44.38357,0,0,1,8.72981-2.39349c1.126-.19664,2.2618-.34057,3.40035-.455,1.31669-.13238,2.63607-.16744,3.9532-.25554a35.35369,35.35369,0,0,1,4.91678.0888A44.389,44.389,0,0,1,77.71137,19.1086a43.55709,43.55709,0,0,1,8.281,6.04653A41.91573,41.91573,0,0,1,94.744,36.76334a40.00773,40.00773,0,0,1,3.20087,8.63637,36.50917,36.50917,0,0,1,.92578,5.64406A33.79211,33.79211,0,0,1,99.04488,54.496ZM66.60561,65.76331a2.2638,2.2638,0,0,0,.20058,1.074.33592.33592,0,0,0,.34139.25924c.797.009,1.59386.05465,2.39078.0548,1.45575.00027,2.91137.0236,4.36732-.05168.85143-.044,1.70273-.09081,2.554-.13405,1.24891-.06345,2.49329-.15975,3.7352-.31537.18624-.02334.24284-.08538.297-.28254A4.78106,4.78106,0,0,0,80.298,63.68c-.26117-.88294-.65424-1.71087-.93313-2.58456-.98867-3.09727-1.95567-6.203-2.92193-9.30891-.466-1.498-.89707-3.00938-1.37312-4.50339a3.79115,3.79115,0,0,0-1.3047-2.09171.48232.48232,0,0,0-.74438.09117,6.10448,6.10448,0,0,0-.87965,1.66471c-.48806,1.2-.84066,2.45544-1.23768,3.693-.73166,2.28057-1.36481,4.59622-2.03643,6.89816-.536,1.83711-1.02,3.69236-1.67367,5.48712A7.19344,7.19344,0,0,0,66.60561,65.76331Zm-32.473-12.63484a31.981,31.981,0,0,0,.16571,4.44873c.16771,1.28283.64576,1.94889,1.593,2.087a10.957,10.957,0,0,0,2.72861-.13391,10.94475,10.94475,0,0,1,2.10428-.00772,6.20943,6.20943,0,0,0,2.499-.22843.63765.63765,0,0,0,.45212-.55881,21.16769,21.16769,0,0,0,.255-3.45863c.02752-1.3199.00236-2.64287-.04677-3.96238a19.12982,19.12982,0,0,1,.01056-2.63118.72887.72887,0,0,0-.22338-.612,7.495,7.495,0,0,1-.88883-1.18585,6.27554,6.27554,0,0,1-.80961-3.152c-.00646-.19884-.026-.30071-.24482-.29957-.84325.00442-1.68567.00678-2.5296-.05479a17.32028,17.32028,0,0,0-2.87548.112c-.40727.03821-.43454.05993-.37452.51321a3.44258,3.44258,0,0,1-.48194,2.316c-.28182.45794-.59513.89269-.9015,1.33173a2.59154,2.59154,0,0,0-.556,2.03373,8.73675,8.73675,0,0,1,.1278,1.84783C34.11878,52.0644,34.13258,52.59671,34.13258,53.12847Zm24.17585,17.8054a31.07463,31.07463,0,0,0,3.4098-.1005c.25611-.02319.30438-.15434.264-.37431a10.76413,10.76413,0,0,0-.49817-1.88387c-.51347-1.35171-1.05317-2.69127-1.57426-4.03951-.50817-1.3148-.82589-2.70832-1.35673-4.01447a5.66331,5.66331,0,0,0-1.10769-1.90742c-.222-.22621-.38627-.22224-.55745.06676a21.98381,21.98381,0,0,0-1.32145,2.55005c-.71368,1.66826-1.39238,3.35452-2.157,4.99631A18.33355,18.33355,0,0,0,51.928,70.264a.519.519,0,0,0,.33128.68923,1.37441,1.37441,0,0,0,.79144.1054,10.24548,10.24548,0,0,1,1.91854-.16562C56.11844,70.84957,57.26681,70.9963,58.30843,70.93387ZM51.96065,51.18936a1.14606,1.14606,0,0,0-.07612-.49882,5.46968,5.46968,0,0,0-1.27524-1.91468,38.68271,38.68271,0,0,1-3.52575-4.36006,5.22179,5.22179,0,0,0-1.98239-1.92459,1.45544,1.45544,0,0,0-1.64751.22246,1.92449,1.92449,0,0,0-.61555,1.82465,5.21106,5.21106,0,0,0,1.79482,3.09355,23.87493,23.87493,0,0,1,2.3407,2.56539,15.29493,15.29493,0,0,0,2.08832,2.64853,1.59741,1.59741,0,0,0,1.45619.55735A2.29721,2.29721,0,0,0,51.96065,51.18936ZM42.39787,76.11864a1.34563,1.34563,0,0,0,1.21143-.93975,8.206,8.206,0,0,0,.4461-2.71487c.07048-1.52431-.04378-3.04691-.11724-4.56877q-.06525-1.35152-.16084-2.70118a13.24979,13.24979,0,0,1-.06138-2.76837.66022.66022,0,0,0-.3313-.72835,1.93458,1.93458,0,0,0-1.68015-.21413,1.23654,1.23654,0,0,0-.98172,1.40759q-.00085,3.84968-.00208,7.69937c-.00014.16726-.02447.33433-.02863.50176a13.06427,13.06427,0,0,0,.29716,3.79569A1.40458,1.40458,0,0,0,42.39787,76.11864ZM35.101,44.598a4.122,4.122,0,0,0-.15223-1.09992.44161.44161,0,0,0-.2199-.32707,1.97,1.97,0,0,0-2.28519.17182,6.69144,6.69144,0,0,0-1.54088,1.82725A24.77334,24.77334,0,0,1,27.92089,49.211a10.36361,10.36361,0,0,0-1.00162,1.29369,2.78724,2.78724,0,0,0-.5639,1.865,1.94713,1.94713,0,0,0,.98237,1.63066,1.25232,1.25232,0,0,0,1.499-.25664,9.32246,9.32246,0,0,0,1.61837-1.764,29.87247,29.87247,0,0,1,2.28309-2.933,15.98134,15.98134,0,0,0,1.23654-1.48136A5.18025,5.18025,0,0,0,35.101,44.598Zm2.35754,22.65917c-.02065-1.24616.03056-2.73585-.04429-4.2253-.05108-1.01634-.22972-1.36525-.89717-1.57587a1.99127,1.99127,0,0,0-1.74826.27353.67222.67222,0,0,0-.3609.60547c-.01873,2.04549.02913,4.09049-.04354,6.137A49.23,49.23,0,0,0,34.522,74.476c.08928,1.02891.23121,1.29205,1.15505,1.47182a1.04192,1.04192,0,0,0,1.37856-.61292,2.99688,2.99688,0,0,0,.35124-1.242A20.75255,20.75255,0,0,0,37.472,71.0785C37.41476,69.88887,37.45855,68.69333,37.45855,67.25717Zm22.45273-44.463a2.19915,2.19915,0,0,0-.64678-.12358,4.05528,4.05528,0,0,1-.96079-.18273c-.30257-.09954-.31314-.39-.36879-.62767-.04968-.21217.17418-.27075.299-.37393a1.70916,1.70916,0,0,1,.20668-.14356.18856.18856,0,0,0,.07413-.23478c-.052-.16509-.12058-.00273-.1826-.00128-.23622.00551-.52475.13245-.69136-.08756-.33759-.44578-.302-.58688.10318-.96873a3.12408,3.12408,0,0,0,.36964-.35508c.094-.12344.24588-.2426.16679-.46989a3.91094,3.91094,0,0,1-1.03193.74314c-.37264.16121-.45519.09835-.58636-.31591-.057-.18008.00272-.38285-.1063-.56792-.04878.04993-.09247.07715-.11279.11839-.10742.21807-.27081.33922-.49049.27583a.45438.45438,0,0,1-.38855-.49141,2.53165,2.53165,0,0,0-.02377-.50248,3.02323,3.02323,0,0,0-.1721-1.01951,10.38355,10.38355,0,0,1-.18672,1.331c-.00408.47834-.19034.5946-.62638.4677-.34683-.10094-.50313-.47892-.81626-.61985-.0594.246-.06278.24739.051.59078.0418.1262.08513.25517-.00209.36484a.57088.57088,0,0,1-.7654.07134A4.07317,4.07317,0,0,1,52.307,18.834c-.19213-.225-.38446-.44537-.7365-.36906.057.09672.09682.17115.14254.2409.30075.45883.64791.88033.90724,1.37249.11042.20955.18055.40081-.01606.62042a.38063.38063,0,0,1-.56406.0684.33492.33492,0,0,0-.49648.04454,2.83593,2.83593,0,0,1,.40108.18767.69972.69972,0,0,1,.30831.68649c-.02964.30436-.27921.22111-.44024.27746a2.29447,2.29447,0,0,1-.34937.0238,2.48064,2.48064,0,0,0-1.212.31073c.2693.01882.48648.02671.70212.0511.22045.02494.44113.05618.65853.10274.24118.05166.50165.09634.55376.43714a.7319.7319,0,0,1-.31694.67914,2.518,2.518,0,0,0-.41925.38442.64832.64832,0,0,0,.50825-.08974c.20835-.08028.37834-.11919.50819.135.12586.24637.29583.45984.04233.75549-.20849.24316-.413.49226-.61855.73958a.79789.79789,0,0,0-.27154.69886c.16141-.14956.2993-.2659.42519-.39632a3.69877,3.69877,0,0,1,.91794-.704c.248-.13272.4.088.56391.1906.13025.08153.01152.25391-.04415.37858-.093.20834-.18575.41686-.28971.65026.12734-.10993.2347-.18851.327-.28467.48931-.50965.99968-.35927,1.26275.41418a4.46009,4.46009,0,0,1,.15182,1.40928,5.62972,5.62972,0,0,0,.2266-1.16862,1.507,1.507,0,0,1,.44424-.97092c.17954-.13861.28417-.1002.33273.11239a.83129.83129,0,0,0,.24948.41044.17357.17357,0,0,0,.19263.05907c.06847-.03777.04506-.1471.02042-.20607a.90685.90685,0,0,1-.04623-.45548c.0414-.39186.32375-.52285.61265-.28741.38987.31773.77594.64113,1.18813.98237a1.1173,1.1173,0,0,0-.27186-.6864c-.14056-.22021-.33021-.40364-.46122-.62941-.08134-.14019-.23066-.307-.12944-.49276.09422-.173.28072-.06833.42541-.09339.19754-.03423.43839.09876.618-.21421-.23586.05877-.40961.01191-.48515-.19852a.93935.93935,0,0,1,.12511-.87893.60221.60221,0,0,1,.64611-.22355A2.12618,2.12618,0,0,0,59.91128,22.79421Zm15.77707,23.463a3.53647,3.53647,0,0,0,.244,1.38786,5.42812,5.42812,0,0,0,1.197,1.8845,26.44364,26.44364,0,0,1,2.60772,3.2349,7.90182,7.90182,0,0,0,1.74113,1.99339,1.15587,1.15587,0,0,0,1.52322.0058,1.65429,1.65429,0,0,0,.55105-2.19834,6.67065,6.67065,0,0,0-.90355-1.4217c-1.18722-1.43673-2.27956-2.95811-3.36672-4.48663a3.51037,3.51037,0,0,0-2.11217-1.62086c-.441-.08283-.91161-.19254-1.28859.2963A1.525,1.525,0,0,0,75.68835,46.25722ZM65.34164,55.19856c.19822-.04362.41061.06725.59457-.14157.473-.53687.92881-1.088,1.353-1.67321.67624-.93273,1.36851-1.8513,2.04912-2.78021a17.57553,17.57553,0,0,0,1.5855-2.25458,3.722,3.722,0,0,0,.4197-3.02191.696.696,0,0,0-.42785-.466,1.43835,1.43835,0,0,0-1.57132.33128,6.726,6.726,0,0,0-.83972.98839q-2.051,2.889-4.07607,5.8003a4.83387,4.83387,0,0,0-.82989,1.7746,1.02193,1.02193,0,0,0,.54643,1.19361A2.94954,2.94954,0,0,0,65.34164,55.19856Zm12.83316,16.832a9.49879,9.49879,0,0,0-.22785-2.72377,1.55452,1.55452,0,0,0-1.51148-1.22593,1.79245,1.79245,0,0,0-1.53339,1.40484,19.73614,19.73614,0,0,0,.03874,5.3462,1.57376,1.57376,0,0,0,.30789.88391A1.70873,1.70873,0,0,0,76.89,76.26a1.1637,1.1637,0,0,0,1.0668-1.11726A17.45324,17.45324,0,0,0,78.1748,72.03053ZM72.02191,71.507c0-.30141.01063-.56141-.00213-.82a4.98588,4.98588,0,0,0-.32-1.72925,1.35424,1.35424,0,0,0-1.3266-.88508,1.21619,1.21619,0,0,0-1.18271.85346,4.807,4.807,0,0,0-.32819,1.68554c-.05975,1.52624.12785,3.04136.16279,4.56227a1.02915,1.02915,0,0,0,.55468.97268,1.61041,1.61041,0,0,0,1.08587.20532c.64617-.11607,1.18112-.338,1.18942-1.09293C71.86894,73.99119,72.05635,72.73417,72.02191,71.507ZM50.704,54.53343l-.0001-.02666a5.41636,5.41636,0,0,1-.56373-.00405c-.21721-.02282-.30471.06012-.27606.302.04227.35684.06337.71725.11688,1.07184a6.52068,6.52068,0,0,0,1.40735,3.465,4.94256,4.94256,0,0,0,3.53179,1.522.23844.23844,0,0,0,.21058-.11882,1.71879,1.71879,0,0,0,.3673-.78141c.11994-.783.02159-.9314-.66283-1.17569a4.84858,4.84858,0,0,1-3.11035-3.44679c-.07759-.267-.07161-.65957-.23319-.77572C51.303,54.42948,50.97282,54.53343,50.704,54.53343ZM60.30869,60.99a1.79037,1.79037,0,0,0,.56544-.10118,4.50164,4.50164,0,0,0,2.42371-1.98323,5.16491,5.16491,0,0,0,.89256-2.51854c.02557-.35094-.09393-.46457-.40051-.51348-.38809-.06192-.76587.059-1.14694.00933-.23054-.03007-.31967.08-.37025.3226a2.96854,2.96854,0,0,1-.83829,1.51659,6.14668,6.14668,0,0,1-2.18819,1.2498A.72415.72415,0,0,0,58.82,60.03525,1.45459,1.45459,0,0,0,60.30869,60.99Zm-.6883,12.927a9.66272,9.66272,0,0,0-.05082-1.4011,1.10384,1.10384,0,0,0-.13684-.62115.8013.8013,0,0,0-1.27416.25089,3.24481,3.24481,0,0,0-.1697,1.174c.01233.71989.08387,1.43851.09787,2.15843.00989.50816.065.60814.53625.63968a3.375,3.375,0,0,0,.49334-.00157.40638.40638,0,0,0,.40525-.392A10.05778,10.05778,0,0,0,59.62039,73.917Zm-3.2104.03052a15.2348,15.2348,0,0,0-.102-1.691c-.02838-.44273-.27574-.50411-.57365-.58371a.58356.58356,0,0,0-.69574.283,2.01294,2.01294,0,0,0-.27185,1.10044,18.373,18.373,0,0,0,.165,2.65411c.02969.24839.12807.36324.29976.38775a2.74825,2.74825,0,0,0,.73549-.00179.36775.36775,0,0,0,.32848-.38157A12.75113,12.75113,0,0,0,56.41,73.94748Z"/><path class="cls-1" d="M95.32985,24.58835q-1.04049.67914-2.081,1.35816-1.33545.87-2.671,1.73972c-.12425.08128-.20034.083-.309-.05771a6.43128,6.43128,0,0,0-.69676-.7705c-.17143-.16-.13295-.288-.04011-.45706q1.30065-2.36853,2.59642-4.7403c.0395-.07219.13494-.16574.04213-.23117-.11721-.08263-.18607.06377-.25545.14014q-1.5981,1.75906-3.1921,3.52265c-.08311.09178-.17343.17671-.24881.27558-.08338.10935-.14175.12465-.24023.00811-.23241-.275-.47518-.53984-.72242-.79872-.104-.10889-.12787-.17515-.01034-.30361,1.202-1.31383,2.38275-2.65194,3.60277-3.94494.45576-.483.90555-.97315,1.35613-1.46185.13683-.14841.21134-.17345.35219-.01106.39726.45806.80658.90364,1.21846,1.34585a.32936.32936,0,0,1,.04486.45736c-.81723,1.52183-1.61818,3.05431-2.42278,4.58438-.00894.017.00073.04591.00376.11707.44467-.278.87326-.54207,1.29854-.81253.98664-.62745,1.97464-1.25246,2.9544-1.89277.16124-.10537.23377-.05469.34385.07053.40877.465.82112.92685,1.24718,1.37234.14661.15329.14889.23255.004.39139-1.51832,1.664-3.02672,3.33909-4.54282,5.00558-.49687.54615-.50348.53884-1.00494-.01577-.02491-.02756-.04918-.05583-.07406-.08342-.43054-.47748-.4399-.48909.01184-.93165.9316-.91267,1.77056-1.92848,2.66471-2.88259.28107-.29992.56515-.59642.84786-.89449Z"/><path class="cls-1" d="M11.69273,33.51721c-1.38539-.86469-2.72932-1.70629-4.07712-2.54028-.12987-.08037-.20193-.11785-.09358-.29931a8.73146,8.73146,0,0,0,.475-.93594c.08148-.18368.16517-.17224.30079-.08774.75792.47222,1.52049.93535,2.2779,1.40855,1.112.69472,2.21757,1.40185,3.3324,2.09087.64089.39609.62009.37109.31665,1.09276a1.13207,1.13207,0,0,1-1.20478.809c-1.60627-.00552-3.21288.10621-4.90195.17445.80458.50765,1.54212.97762,2.28381,1.43948.59658.37151,1.1954.73894,1.79953,1.09519.14953.08817.12142.17343.05839.29462-.17311.33279-.34941.66388-.512,1.00293-.11437.23858-.23916.03711-.312-.00715-.87451-.53151-1.74018-1.08073-2.60828-1.62508-1.11085-.69656-2.2166-1.40338-3.33674-2.08124-.25088-.15182-.26208-.26977-.09561-.4849a1.29352,1.29352,0,0,0,.11322-.23855c.418-.88111.418-.87984,1.32778-.89531.89148-.01516,1.7867.0165,2.67319-.06557A12.43351,12.43351,0,0,0,11.69273,33.51721Z"/><path class="cls-1" d="M100.88865,74.54938c-1.21637-.77888-2.41634-1.55054-3.61956-2.316-.43372-.27589-.43729-.26907-.18818-.75887.437-.85923.43-.84611,1.22111-.33562q2.64518,1.707,5.30626,3.38371c.27084.17015.34276.30018.13933.58653a2.97716,2.97716,0,0,0-.37429.691.497.497,0,0,1-.52309.35235c-.02348.00087-.047-.00021-.0705.00016q-2.21544.03442-4.43088.06849c-.27721.00412-.54139.14373-.84776.13676q.66477.428,1.32945.85613c.901.58265,1.80007,1.169,2.70427,1.74555.10194.065.14759.09827.05976.21574-.05062.0677-.0693.16385-.11782.23421-.19982.28973-.2744.82749-.53276.86956-.26259.04277-.581-.3096-.87086-.49656-1.76336-1.13729-3.52289-2.28183-5.29181-3.40846-.1992-.12687-.22786-.20954-.077-.38621a.54667.54667,0,0,0,.07924-.17169,1.29916,1.29916,0,0,1,1.49665-1.04048,10.39589,10.39589,0,0,0,1.53486-.03845c.91318-.04971,1.82677-.07632,2.74112-.05931A.4255.4255,0,0,0,100.88865,74.54938Z"/><path class="cls-1" d="M12.99417,81.95621c1.19457-.99652,2.39076-1.99069,3.58089-2.99362.10473-.08826.14828-.07211.21529.02942.20471.31017.40029.6297.62679.91956.13153.16831.05813.24911-.05138.33952q-1.80762,1.49241-3.61743,2.9816c-.65028.53591-1.30441,1.06636-1.94692,1.6134-.144.12262-.20743.13982-.31884-.04185a9.98113,9.98113,0,0,0-.63728-.91058c-.15407-.19786-.03924-.3684.01877-.53036.5156-1.4394,1.04331-2.87351,1.56342-4.31095a7.19138,7.19138,0,0,0,.34269-1.2144c-.62661.515-1.2557,1.02629-1.8791,1.54593-.59092.49258-1.17472.99554-1.7643,1.49008-.13255.11118-.24389.19566-.3644-.06192a3.14039,3.14039,0,0,0-.49785-.73532c-.19228-.21722-.1226-.31853.06107-.46934q2.29767-1.8866,4.5853-3.78811c.30492-.25236.60735-.50841.91292-.75981.11534-.09488.19839-.16971.31735.047.17344.316.418.58352.619.88249a.48029.48029,0,0,1,.06181.48812c-.63521,1.73013-1.248,3.47032-1.86533,5.2084a.88444.88444,0,0,0-.024.18577c-.016.02859-.05162.06737-.04454.084C12.9167,82.02248,12.95781,81.98016,12.99417,81.95621Z"/><path class="cls-1" d="M6.49991,48.842A4.59469,4.59469,0,0,1,3.241,47.61238a3.26028,3.26028,0,0,1-1.01129-2.05432,4.91191,4.91191,0,0,1,.89927-3.543A2.89535,2.89535,0,0,1,5.3718,40.78332a4.49391,4.49391,0,0,1,3.19509.98009,3.43347,3.43347,0,0,1,1.30739,2.71423A5.59645,5.59645,0,0,1,9.315,47.05549,3.09727,3.09727,0,0,1,6.49991,48.842ZM3.50217,44.46152a2.14409,2.14409,0,0,0,.52895,1.6936,3.1569,3.1569,0,0,0,3.19673.87823,1.902,1.902,0,0,0,1.32559-1.709,2.11594,2.11594,0,0,0-.6387-1.99809,3.83675,3.83675,0,0,0-1.94828-.8388A2.01322,2.01322,0,0,0,3.50217,44.46152Z"/><path class="cls-1" d="M103.52307,69.06728a4.44961,4.44961,0,0,1-3.21876-1.31464,3.79036,3.79036,0,0,1-.89545-3.51429,4.048,4.048,0,0,1,1.32182-2.49913,3.20592,3.20592,0,0,1,2.94307-.63113,4.68678,4.68678,0,0,1,2.20158,1.062,3.6952,3.6952,0,0,1,1.1034,3.45718,3.853,3.853,0,0,1-2.24745,3.252A2.60084,2.60084,0,0,1,103.52307,69.06728Zm-.75122-6.34561q-.10582,0-.21165,0a1.95275,1.95275,0,0,0-1.8149,1.37966,2.22881,2.22881,0,0,0,.63943,2.5012,3.647,3.647,0,0,0,2.41419.80665,1.84875,1.84875,0,0,0,1.77591-1.35235,2.27118,2.27118,0,0,0-.382-2.35735A3.35174,3.35174,0,0,0,102.77185,62.72167Z"/><path class="cls-1" d="M42.82215,13.17245c-.15106.0708-.15069-.046-.171-.17066-.12854-.78952-.26856-1.57677-.39647-2.36641-.26022-1.60635-.507-3.21542-.77649-4.81984-.10114-.60207-.12571-.61415.42147-.72406,1.54615-.31055,3.09495-.605,4.64212-.90935.2048-.04029.3413-.037.3399.26745-.00159.34676.267.7748.077,1.00572-.16455.19994-.58475.141-.891.20216-.94044.1877-1.87928.38575-2.82177.55978-.15433.02849-.18589.10142-.14994.22087a11.67137,11.67137,0,0,1,.21016,1.3179c.04137.22949.11636.28612.333.24163,1.05583-.21685,2.11724-.40081,3.17237-.62147.23362-.04885.285.01281.29915.25166a4.91681,4.91681,0,0,0,.12.87116c.04885.20021-.01248.1919-.15586.21849-1.0602.19666-2.11681.417-3.1773.61157-.27131.04979-.33839.12805-.2601.4506a12.81148,12.81148,0,0,1,.23279,1.54658c.02577.22272.08822.2795.29273.23317,1.20909-.27387,2.43816-.42814,3.64238-.73429.11922-.0303.23448-.04128.25113.19161a9.73552,9.73552,0,0,0,.17451.96621c.019.1087-.00177.18154-.13639.20674-1.72.32194-3.43851.65371-5.15754.982A.66321.66321,0,0,1,42.82215,13.17245Z"/><path class="cls-1" d="M84.18679,12.10524q-1.59539,3.48418-3.18276,6.9647c-.11255.24826-.2033.32983-.43733.16915a4.15932,4.15932,0,0,0-.77642-.43105c-.2728-.11083-.24869-.26256-.13993-.49093.411-.86294.806-1.73528,1.2254-2.59311.10861-.22212.0879-.305-.1209-.41457-.71568-.37547-1.42071-.77575-2.128-1.17058-.17645-.09851-.27533-.16831-.41781.11918-.4314.8704-.81186,1.76792-1.21584,2.6525-.09949.21784-.18015.24556-.36132.13092a5.484,5.484,0,0,0-.84128-.47209c-.25763-.10468-.231-.22667-.13052-.44409q1.31964-2.856,2.62679-5.71894c.14743-.32159.29975-.64086.43562-.96837.09448-.22773.198-.31024.42062-.164a7.6619,7.6619,0,0,0,.90221.51043c.156.0745.14441.12331.07624.2696-.37779.81073-.73375,1.63393-1.117,2.44139-.10251.216-.065.30265.11794.40252q1.14405.62457,2.27694,1.27379c.15164.08729.16285.00618.21552-.11225.36994-.83186.74911-1.65872,1.12422-2.48779.06287-.139.10368-.248.28918-.12869C83.40064,11.68245,83.79333,11.88327,84.18679,12.10524Z"/><path class="cls-1" d="M35.29034,15.83559c-.41453.15538-.82424.30125-1.2281.46471-.133.05383-.17925.07-.23855-.11636-.67584-2.12438-1.36527-4.24351-2.05384-6.36295-.12485-.38427-.26219-.7636-.39072-1.13638.38894-.15159.77332-.29522,1.15321-.4521.18674-.07712.2792-.04825.35045.18574.25489.83711.5459,1.66087.79759,2.49906.07077.23566.15515.23124.32654.16139.782-.31872,1.56671-.62939,2.35169-.9391.14488-.05716.17755-.10283.111-.29494-.28907-.83441-.53673-1.6862-.81859-2.52383-.07609-.22613-.07387-.34542.16191-.39908a3.1837,3.1837,0,0,0,.42825-.15274c.235-.09072.50779-.3256.6976-.2132.16234.09613.20036.45958.28129.70956q.93039,2.87423,1.85563,5.75049c.09734.302.17352.61461.29551.9038.08725.20682.06109.28163-.13555.34569a7.44453,7.44453,0,0,0-.982.38246c-.18043.08866-.22076.00449-.26755-.14224-.28485-.89328-.57959-1.78291-.85094-2.68114-.10164-.33642-.19229-.49615-.56367-.32238-.70294.32891-1.42885.60178-2.15557.8628-.21455.07706-.20955.15-.1449.34408C34.61793,13.75052,34.95308,14.79689,35.29034,15.83559Z"/><path class="cls-1" d="M100.80549,39.42422c-.08007-.62978-.17832-1.3639-.26591-2.09956-.17414-1.4626.56327-2.80226,2.00335-2.769a1.9056,1.9056,0,0,1,1.5819.97162A4.55159,4.55159,0,0,1,105,38.75342a2.20339,2.20339,0,0,1-1.10075,1.58749c-.09891.06054-.14983.05617-.2039-.0822-.1522-.38952-.31766-.774-.49969-1.14749-.08052-.16523.00226-.22946.08445-.32331a1.8574,1.8574,0,0,0-.39515-2.6466c-.39022-.23474-.83782.06985-.87413.58331a11.03935,11.03935,0,0,0,.19979,1.90193,7.32608,7.32608,0,0,1,.03478,1.76548,2.21154,2.21154,0,0,1-1.9307,1.80148c-1.19851.10095-1.904-.66354-2.41044-1.725a4.83524,4.83524,0,0,1-.56-2.27593,2.8591,2.8591,0,0,1,1.329-2.32214c.10063-.07213.14549-.05682.20366.06856.16455.35467.33537.70758.52929,1.04319.11433.19788.00169.2836-.09971.38476a1.9987,1.9987,0,0,0,.11871,2.9869.85274.85274,0,0,0,1.25673-.11682C100.84252,40.01948,100.78086,39.77136,100.80549,39.42422Z"/><path class="cls-1" d="M107.737,48.65242a2.35292,2.35292,0,0,1-1.41032,2.24339c-.2485.09485-.45872.19249-.4807-.26462a5.98069,5.98069,0,0,0-.179-.97042.266.266,0,0,1,.13791-.34205c.76793-.41464.79144-1.00131.60009-1.89294a2.544,2.544,0,0,0-.23533-.59224.58185.58185,0,0,0-1.107.09979,7.86167,7.86167,0,0,0-.22934,1.58956,6.40887,6.40887,0,0,1-.37212,2.0237,2.09008,2.09008,0,0,1-3.82981.04222,5.18156,5.18156,0,0,1-.45681-3.41338,2.62091,2.62091,0,0,1,1.80365-1.946c.12878-.04721.18437-.01954.21636.13728.07349.36031.15616.71956.25792,1.0712a.30226.30226,0,0,1-.18169.41478,1.97476,1.97476,0,0,0-.3718,3.07828.7412.7412,0,0,0,1.29907-.37749,13.90391,13.90391,0,0,0,.24462-2.08311,3.174,3.174,0,0,1,.82159-2.05371,1.80644,1.80644,0,0,1,2.71117.24457A5.004,5.004,0,0,1,107.737,48.65242Z"/><path class="cls-1" d="M57.96705,11.82229c-.49123,0-.95845-.01522-1.4242.00708-.20174.00965-.22162-.13608-.26989-.26858-.173-.475-.3386-.95332-.511-1.42861-.0308-.08494-.03167-.18672-.18052-.16835a23.47874,23.47874,0,0,1-2.56684.04047.32946.32946,0,0,0-.37582.28053c-.13344.46242-.3095.90988-.44248,1.37244-.04917.171-.1144.22417-.26776.22115-.43446-.00856-.86914-.003-1.32444-.003a5.08164,5.08164,0,0,1,.39317-1.29024c.73919-2.19074,1.50416-4.37087,2.25467-6.557.08581-.24993.18373-.41616.46841-.36721a3.76708,3.76708,0,0,0,.63336.00674c.63875-.00008.62843.00454.87281.67187Q56.46958,7.734,57.725,11.123C57.80736,11.34679,57.88145,11.57432,57.96705,11.82229ZM55.22172,8.60135,54.175,5.55324l-.99921,3.08785C53.87219,8.66254,54.52185,8.54441,55.22172,8.60135Z"/><path class="cls-1" d="M12.66692,72.67227c-1.0021,0-1.91687-.02363-2.83021.00613-1.07763.03511-2.15651.01631-3.23212.0685-.54878.02662-1.09754.02224-1.64543.05321-.20832.01178-.328-.019-.39562-.28946a7.073,7.073,0,0,0-.41277-1.09688.24224.24224,0,0,1,.04636-.31758q2.57156-2.79707,5.139-5.59867a3.00911,3.00911,0,0,0,.439-.462c.19817.51543.38053.99311.56571,1.46946a.282.282,0,0,1-.10166.332,13.1823,13.1823,0,0,1-1.044,1.09642.18837.18837,0,0,0-.05924.2564c.34773.89412.683,1.79419,1.01689,2.69477a.25712.25712,0,0,0,.29265.19481,6.797,6.797,0,0,0,1.18537-.07569c.26939-.0584.44647.027.53791.36968A13.07658,13.07658,0,0,0,12.66692,72.67227Zm-6.651-1.41677c.26861-.02446.526.00615.7817-.00029.59673-.015,1.1935-.02927,1.79-.05123.15044-.00553.34811-.01057.25382-.27476-.19924-.55827-.41477-1.10956-.63008-1.66066-.04763-.12192-.11508-.1797-.23628-.052C7.3259,69.90072,6.66967,70.5767,6.01588,71.2555Z"/><path class="cls-1" d="M15.89507,31.27228c-.14148-.35429-.26385-.68636-.4045-1.00873q-1.19736-2.74425-2.40178-5.48476c-.17207-.39289-.32954-.79437-.518-1.17737a.34526.34526,0,0,1,.08047-.40851,10.86461,10.86461,0,0,0,.808-.96c.11047-.17872.23273-.05159.33845-.00719q2.1266.8931,4.24952,1.79686c.908.38493,1.8134.77785,2.7255,1.1507.20495.08378.20261.13991.05936.29569a6.21794,6.21794,0,0,0-.61324.74058.50726.50726,0,0,1-.7677.183c-.322-.17114-.66429-.29508-.98983-.45874a.25662.25662,0,0,0-.36983.0593q-.89567,1.06454-1.80489,2.11507c-.11484.132-.05572.22641-.00342.34146.20893.45959.41561.92042.62572,1.37934a.24208.24208,0,0,1-.01588.30287A13.29311,13.29311,0,0,1,15.89507,31.27228ZM14.25278,24.047l1.36129,2.93283c.41583-.63642.97674-1.074,1.34836-1.69833Z"/><path class="cls-1" d="M69.61111,5.60353c.27847.08911.591.18557.90162.2891q2.22645.74211,4.45275,1.48468c.1153.0382.20735.05709.12165.221a1.273,1.273,0,0,0-.05337.18114c-.10882.32267-.07792.82571-.32087.933-.22593.09977-.58276-.15994-.88153-.26293-.29852-.1029-.59968-.19793-.89363-.31494-.21634-.08611-.294-.03038-.36293.22608-.52618,1.95716-1.07879,3.90566-1.60509,5.86278-.07671.28528-.14114.36738-.40936.23971a7.55479,7.55479,0,0,0-.89437-.294c-.13731-.0454-.22682-.09682-.16582-.31257.53733-1.90027,1.06074-3.80534,1.58857-5.70888.0238-.08582.04826-.17155.0763-.25575.08528-.25622.01725-.36429-.23792-.43283-.527-.14159-1.04087-.34234-1.56206-.51153-.161-.05226-.23986-.11894-.17014-.32715.09987-.29824.16833-.60915.25941-.91127C69.46915,5.65991,69.46864,5.54182,69.61111,5.60353Z"/><path class="cls-1" d="M3.497,64.87967a7.18306,7.18306,0,0,0-.97109.16778c-.22516.0694-.26847-.0206-.29773-.21861-.18612-1.2595-.37641-2.51825-.56238-3.77778-.10754-.72834-.2003-1.45956-.32128-2.18511-.02665-.15984.00193-.221.12642-.24182.264-.04422.5344-.05584.79273-.12421s.30687.08066.335.29864c.07323.56823.15515,1.13515.22337,1.70409.02969.24761.11347.34891.36006.30226,1.78587-.33783,3.574-.66124,5.36058-.99442.41793-.07794.41922-.08058.48345.39975.04356.3258.08747.65308.15882.97218.037.16533.03317.218-.13724.247-1.63029.27812-3.25893.568-4.88809.85419-.25117.04412-.5014.10385-.75422.12488-.23287.01937-.2721.16772-.24168.36767C3.27012,63.47559,3.38446,64.17351,3.497,64.87967Z"/><path class="cls-1" d="M19.99336,15.97653c.05526.07048.11313.13337.15963.20523,1.0644,1.64456,2.1348,3.28453,3.18384,4.941.17521.27665.30115.26751.51577.09335.81294-.65969,1.63914-1.29972,2.44506-1.96955.22484-.18687.35808-.21029.491.08558.13148.29272.50986.5334.44213.81121-.05825.23889-.43272.38391-.66737.57043-1.10132.87543-2.20487,1.74749-3.30151,2.63-.15988.12866-.25769.09827-.36014-.06087q-1.23942-1.92526-2.48-3.84967c-.50432-.783-1.0065-1.56773-1.514-2.3482-.06633-.102-.12832-.16224.01088-.26472.33525-.2468.658-.5143.98579-.77344Z"/><path class="cls-1" d="M63.15007,4.58384q-.28431,2.02051-.56869,4.041-.14922,1.05882-.29989,2.11737c-.02952.20792-.00108.30961.23891.34622,1.09566.16714,2.18624.37448,3.27979.55915.13223.02234.147.07178.12049.202a6.446,6.446,0,0,0-.15708.93492c-.01331.25038-.1278.23018-.27152.20545q-2.3297-.4008-4.659-.80424c-.15542-.02683-.24752-.01974-.20637-.29733.26881-1.8133.4875-3.63558.74617-5.45083.09685-.67963.20818-1.35633.28177-2.04011.02227-.207.08084-.33487.34225-.23464a5.00136,5.00136,0,0,0,.86.13274C62.99788,4.32239,63.21562,4.294,63.15007,4.58384Z"/><path class="cls-1" d="M7.54388,54.43309c-1.29132-.05077-2.77657-.07926-4.26106-.12441C2.688,54.2906,2.09215,54.271,1.497,54.26875c-.211-.00079-.25053-.08255-.24273-.28961.01364-.36207.01923-.72636-.00206-1.08755-.01483-.2516.07032-.30208.27836-.29614,1.48653.04247,2.975.03924,4.45915.1269.5367.0317,1.07275.02565,1.60825.05763.31257.01866.62453.05153.93723.06493.12432.00532.16563.06.15943.18781-.005.10334-.00151.2072-.00142.31083C8.69416,54.43309,8.69419,54.43309,7.54388,54.43309Z"/><path class="cls-1" d="M100.61084,56.27757c.01449-.83.01486-.84649.75392-.8262,1.051.02885,2.10381.05106,3.15156.13854,1.09424.09137,2.19079.08777,3.2851.15908.23082.015.25694.09785.26587.31744.01587.39033-.07263.76967-.06453,1.15621.00284.13587-.03159.16082-.15816.15931-.93258-.01112-1.86265-.06183-2.79246-.14347-.47622-.04183-.95526-.01489-1.43466-.05269-.75883-.05983-1.52258-.04158-2.28409-.06357-.2083-.006-.4157-.04449-.62407-.05513-.12046-.00614-.1147-.05709-.104-.16975C100.62474,56.69278,100.61084,56.48437,100.61084,56.27757Z"/><path class="cls-1" d="M94.24943,32.89058c1.98811-1.48181,3.94761-2.93976,5.90316-4.40411.17746-.13289.27245-.13892.39242.08936.20272.38572.445.74611.6666,1.11043-1.93692,1.44529-3.87127,2.87839-5.79177,4.33375-.2629.19923-.37633.23283-.5382-.11335A9.35069,9.35069,0,0,0,94.24943,32.89058Z"/><path class="cls-3" d="M66.60561,65.76331a7.19344,7.19344,0,0,1,.5877-2.73775c.65369-1.79476,1.13767-3.65,1.67367-5.48712.67162-2.30194,1.30477-4.61759,2.03643-6.89816.397-1.23752.74962-2.493,1.23768-3.693a6.10448,6.10448,0,0,1,.87965-1.66471.48232.48232,0,0,1,.74438-.09117,3.79115,3.79115,0,0,1,1.3047,2.09171c.476,1.494.90709,3.0054,1.37312,4.50339.96626,3.10592,1.93326,6.21164,2.92193,9.30891.27889.87369.672,1.70162.93313,2.58456a4.78106,4.78106,0,0,1,.19386,2.68773c-.05415.19716-.11075.2592-.297.28254-1.24191.15562-2.48629.25192-3.7352.31537-.85126.04324-1.70256.09-2.554.13405-1.456.07528-2.91157.052-4.36732.05168-.79692-.00015-1.59376-.0458-2.39078-.0548a.33592.33592,0,0,1-.34139-.25924A2.2638,2.2638,0,0,1,66.60561,65.76331Z"/><path class="cls-3" d="M34.13258,53.12847c0-.53176-.0138-1.06407.0036-1.59514a8.73675,8.73675,0,0,0-.1278-1.84783,2.59154,2.59154,0,0,1,.556-2.03373c.30637-.439.61968-.87379.9015-1.33173a3.44258,3.44258,0,0,0,.48194-2.316c-.06-.45328-.03275-.475.37452-.51321a17.32028,17.32028,0,0,1,2.87548-.112c.84393.06157,1.68635.05921,2.5296.05479.21885-.00114.23836.10073.24482.29957a6.27554,6.27554,0,0,0,.80961,3.152,7.495,7.495,0,0,0,.88883,1.18585.72887.72887,0,0,1,.22338.612,19.12982,19.12982,0,0,0-.01056,2.63118c.04913,1.31951.07429,2.64248.04677,3.96238a21.16769,21.16769,0,0,1-.255,3.45863.63765.63765,0,0,1-.45212.55881,6.20943,6.20943,0,0,1-2.499.22843,10.94475,10.94475,0,0,0-2.10428.00772,10.957,10.957,0,0,1-2.72861.13391c-.94726-.13813-1.42531-.80419-1.593-2.087A31.981,31.981,0,0,1,34.13258,53.12847Z"/><path class="cls-3" d="M58.30843,70.93387c-1.04162.06243-2.19-.0843-3.33922-.04082a10.24548,10.24548,0,0,0-1.91854.16562,1.37441,1.37441,0,0,1-.79144-.1054A.519.519,0,0,1,51.928,70.264a18.33355,18.33355,0,0,1,1.48153-4.03713c.76465-1.64179,1.44335-3.32805,2.157-4.99631A21.98381,21.98381,0,0,1,56.888,58.68055c.17118-.289.33545-.293.55745-.06676a5.66331,5.66331,0,0,1,1.10769,1.90742c.53084,1.30615.84856,2.69967,1.35673,4.01447.52109,1.34824,1.06079,2.6878,1.57426,4.03951a10.76413,10.76413,0,0,1,.49817,1.88387c.04035.22-.00792.35112-.264.37431A31.07463,31.07463,0,0,1,58.30843,70.93387Z"/><path class="cls-3" d="M35.25959,38.228a4.43253,4.43253,0,0,1,1.22935-3.28248,3.6505,3.6505,0,0,1,2.13194-1.06729,3.55072,3.55072,0,0,1,4.133,2.48993,4.882,4.882,0,0,1-.40025,4.19527,3.50959,3.50959,0,0,1-4.30646,1.54166,3.71278,3.71278,0,0,1-2.72261-3.06555A3.12861,3.12861,0,0,1,35.25959,38.228Z"/><path class="cls-3" d="M77.228,40.13626a3.98306,3.98306,0,0,1-1.018,2.8421,3.443,3.443,0,0,1-2.3679,1.083,3.77676,3.77676,0,0,1-4.14089-3.43265,3.82548,3.82548,0,0,1,.866-3.0399,4.01531,4.01531,0,0,1,4.96775-.734,3.73276,3.73276,0,0,1,1.50506,2.08337A3.36412,3.36412,0,0,1,77.228,40.13626Z"/><path class="cls-3" d="M51.96065,51.18936a2.29721,2.29721,0,0,1-1.44253,2.21378,1.59741,1.59741,0,0,1-1.45619-.55735,15.29493,15.29493,0,0,1-2.08832-2.64853,23.87493,23.87493,0,0,0-2.3407-2.56539,5.21106,5.21106,0,0,1-1.79482-3.09355,1.92449,1.92449,0,0,1,.61555-1.82465,1.45544,1.45544,0,0,1,1.64751-.22246,5.22179,5.22179,0,0,1,1.98239,1.92459,38.68271,38.68271,0,0,0,3.52575,4.36006,5.46968,5.46968,0,0,1,1.27524,1.91468A1.14606,1.14606,0,0,1,51.96065,51.18936Z"/><path class="cls-3" d="M42.39787,76.11864a1.40458,1.40458,0,0,1-1.40865-1.231,13.06427,13.06427,0,0,1-.29716-3.79569c.00416-.16743.02849-.3345.02863-.50176q.00315-3.84969.00208-7.69937a1.23654,1.23654,0,0,1,.98172-1.40759,1.93458,1.93458,0,0,1,1.68015.21413.66022.66022,0,0,1,.3313.72835,13.24979,13.24979,0,0,0,.06138,2.76837q.09507,1.34935.16084,2.70118c.07346,1.52186.18772,3.04446.11724,4.56877a8.206,8.206,0,0,1-.4461,2.71487A1.34563,1.34563,0,0,1,42.39787,76.11864Z"/><path class="cls-3" d="M35.101,44.598a5.18025,5.18025,0,0,1-1.12632,2.96738,15.98134,15.98134,0,0,1-1.23654,1.48136,29.87247,29.87247,0,0,0-2.28309,2.933,9.32246,9.32246,0,0,1-1.61837,1.764,1.25232,1.25232,0,0,1-1.499.25664,1.94713,1.94713,0,0,1-.98237-1.63066,2.78724,2.78724,0,0,1,.5639-1.865A10.36361,10.36361,0,0,1,27.92089,49.211a24.77334,24.77334,0,0,0,2.98192-4.04094,6.69144,6.69144,0,0,1,1.54088-1.82725,1.97,1.97,0,0,1,2.28519-.17182.44161.44161,0,0,1,.2199.32707A4.122,4.122,0,0,1,35.101,44.598Z"/><path class="cls-3" d="M37.45855,67.25717c0,1.43616-.04379,2.6317.0134,3.82133a20.75255,20.75255,0,0,1-.06506,3.01439,2.99688,2.99688,0,0,1-.35124,1.242,1.04192,1.04192,0,0,1-1.37856.61292c-.92384-.17977-1.06577-.44291-1.15505-1.47182a49.23,49.23,0,0,1-.15765-6.00391c.07267-2.04655.02481-4.09155.04354-6.137a.67222.67222,0,0,1,.3609-.60547,1.99127,1.99127,0,0,1,1.74826-.27353c.66745.21062.84609.55953.89717,1.57587C37.48911,64.52132,37.4379,66.011,37.45855,67.25717Z"/><path class="cls-4" d="M59.91128,22.79421a2.12618,2.12618,0,0,1-1.31047.11388.60221.60221,0,0,0-.64611.22355.93935.93935,0,0,0-.12511.87893c.07554.21043.24929.25729.48515.19852-.17957.313-.42042.18-.618.21421-.14469.02506-.33119-.07956-.42541.09339-.10122.1858.0481.35257.12944.49276.131.22577.32066.4092.46122.62941a1.1173,1.1173,0,0,1,.27186.6864c-.41219-.34124-.79826-.66464-1.18813-.98237-.2889-.23544-.57125-.10445-.61265.28741a.90685.90685,0,0,0,.04623.45548c.02464.059.04805.1683-.02042.20607a.17357.17357,0,0,1-.19263-.05907.83129.83129,0,0,1-.24948-.41044c-.04856-.21259-.15319-.251-.33273-.11239a1.507,1.507,0,0,0-.44424.97092,5.62972,5.62972,0,0,1-.2266,1.16862,4.46009,4.46009,0,0,0-.15182-1.40928c-.26307-.77345-.77344-.92383-1.26275-.41418-.09233.09616-.19969.17474-.327.28467.104-.2334.19667-.44192.28971-.65026.05567-.12467.1744-.29705.04415-.37858-.16393-.10262-.316-.32332-.56391-.1906a3.69877,3.69877,0,0,0-.91794.704c-.12589.13042-.26378.24676-.42519.39632a.79789.79789,0,0,1,.27154-.69886c.2055-.24732.41006-.49642.61855-.73958.2535-.29565.08353-.50912-.04233-.75549-.12985-.2542-.29984-.21529-.50819-.135a.64832.64832,0,0,1-.50825.08974,2.518,2.518,0,0,1,.41925-.38442.7319.7319,0,0,0,.31694-.67914c-.05211-.3408-.31258-.38548-.55376-.43714-.2174-.04656-.43808-.0778-.65853-.10274-.21564-.02439-.43282-.03228-.70212-.0511a2.48064,2.48064,0,0,1,1.212-.31073,2.29447,2.29447,0,0,0,.34937-.0238c.161-.05635.4106.0269.44024-.27746a.69972.69972,0,0,0-.30831-.68649,2.83593,2.83593,0,0,0-.40108-.18767.33492.33492,0,0,1,.49648-.04454.38063.38063,0,0,0,.56406-.0684c.19661-.21961.12648-.41087.01606-.62042-.25933-.49216-.60649-.91366-.90724-1.37249-.04572-.06975-.08557-.14418-.14254-.2409.352-.07631.54437.144.7365.36906a4.07317,4.07317,0,0,0,.71517.83736.57088.57088,0,0,0,.7654-.07134c.08722-.10967.04389-.23864.00209-.36484-.11375-.34339-.11037-.34475-.051-.59078.31313.14093.46943.51891.81626.61985.436.1269.6223.01064.62638-.4677a10.38355,10.38355,0,0,0,.18672-1.331,3.02323,3.02323,0,0,1,.1721,1.01951,2.53165,2.53165,0,0,1,.02377.50248.45438.45438,0,0,0,.38855.49141c.21968.06339.38307-.05776.49049-.27583.02032-.04124.064-.06846.11279-.11839.109.18507.04928.38784.1063.56792.13117.41426.21372.47712.58636.31591a3.91094,3.91094,0,0,0,1.03193-.74314c.07909.22729-.07283.34645-.16679.46989a3.12408,3.12408,0,0,1-.36964.35508c-.40518.38185-.44077.523-.10318.96873.16661.22.45514.09307.69136.08756.062-.00145.13062-.16381.1826.00128a.18856.18856,0,0,1-.07413.23478,1.70916,1.70916,0,0,0-.20668.14356c-.12483.10318-.34869.16176-.299.37393.05565.23767.06622.52813.36879.62767a4.05528,4.05528,0,0,0,.96079.18273A2.19915,2.19915,0,0,1,59.91128,22.79421Z"/><path class="cls-3" d="M75.68835,46.25722a1.525,1.525,0,0,1,.19315-.92478c.377-.48884.84764-.37913,1.28859-.2963A3.51037,3.51037,0,0,1,79.28226,46.657c1.08716,1.52852,2.1795,3.0499,3.36672,4.48663a6.67065,6.67065,0,0,1,.90355,1.4217,1.65429,1.65429,0,0,1-.55105,2.19834,1.15587,1.15587,0,0,1-1.52322-.0058,7.90182,7.90182,0,0,1-1.74113-1.99339,26.44364,26.44364,0,0,0-2.60772-3.2349,5.42812,5.42812,0,0,1-1.197-1.8845A3.53647,3.53647,0,0,1,75.68835,46.25722Z"/><path class="cls-3" d="M65.34164,55.19856a2.94954,2.94954,0,0,1-1.19648-.24926,1.02193,1.02193,0,0,1-.54643-1.19361,4.83387,4.83387,0,0,1,.82989-1.7746q2.01945-2.91587,4.07607-5.8003a6.726,6.726,0,0,1,.83972-.98839,1.43835,1.43835,0,0,1,1.57132-.33128.696.696,0,0,1,.42785.466,3.722,3.722,0,0,1-.4197,3.02191,17.57553,17.57553,0,0,1-1.5855,2.25458c-.68061.92891-1.37288,1.84748-2.04912,2.78021-.42424.58516-.88009,1.13634-1.353,1.67321C65.75225,55.26581,65.53986,55.15494,65.34164,55.19856Z"/><path class="cls-3" d="M78.17484,72.03048a17.45723,17.45723,0,0,1-.218,3.11226A1.1637,1.1637,0,0,1,76.89,76.26a1.70873,1.70873,0,0,1-1.64132-.54422,1.57376,1.57376,0,0,1-.30789-.88391,19.73614,19.73614,0,0,1-.03874-5.3462,1.79245,1.79245,0,0,1,1.53339-1.40484A1.55452,1.55452,0,0,1,77.947,69.30676,9.5,9.5,0,0,1,78.17484,72.03048Z"/><path class="cls-3" d="M72.02191,71.507c.03444,1.22713-.153,2.48415-.16692,3.752-.0083.7549-.54325.97686-1.18942,1.09293a1.61041,1.61041,0,0,1-1.08587-.20532A1.02915,1.02915,0,0,1,69.025,75.174c-.03494-1.52091-.22254-3.036-.16279-4.56227a4.807,4.807,0,0,1,.32819-1.68554,1.21619,1.21619,0,0,1,1.18271-.85346,1.35424,1.35424,0,0,1,1.3266.88508,4.98588,4.98588,0,0,1,.32,1.72925C72.03254,70.94563,72.02191,71.20563,72.02191,71.507Z"/><path class="cls-3" d="M55.22884,55.85941a1.82859,1.82859,0,0,1,1.55787-1.899,1.86123,1.86123,0,0,1,2.42547,2.09693,2.12583,2.12583,0,0,1-.54589,1.20922,2.00739,2.00739,0,0,1-3.10364-.25956A1.74277,1.74277,0,0,1,55.22884,55.85941Z"/><path class="cls-3" d="M50.704,54.53343c.26879,0,.59894-.104.78764.0317.16158.11615.1556.50874.23319.77572a4.84858,4.84858,0,0,0,3.11035,3.44679c.68442.24429.78277.39271.66283,1.17569a1.71879,1.71879,0,0,1-.3673.78141.23844.23844,0,0,1-.21058.11882,4.94256,4.94256,0,0,1-3.53179-1.522,6.52068,6.52068,0,0,1-1.40735-3.465c-.05351-.35459-.07461-.715-.11688-1.07184-.02865-.24186.05885-.3248.27606-.302a5.41636,5.41636,0,0,0,.56373.00405Z"/><path class="cls-3" d="M60.30869,60.99A1.45459,1.45459,0,0,1,58.82,60.03525a.72415.72415,0,0,1,.42624-1.06335,6.14668,6.14668,0,0,0,2.18819-1.2498,2.96854,2.96854,0,0,0,.83829-1.51659c.05058-.24257.13971-.35267.37025-.3226.38107.04969.75885-.07125,1.14694-.00933.30658.04891.42608.16254.40051.51348a5.16491,5.16491,0,0,1-.89256,2.51854,4.50164,4.50164,0,0,1-2.42371,1.98323A1.79037,1.79037,0,0,1,60.30869,60.99Z"/><path class="cls-3" d="M59.62039,73.917a10.05778,10.05778,0,0,1-.09881,1.80717.40638.40638,0,0,1-.40525.392,3.375,3.375,0,0,1-.49334.00157c-.47128-.03154-.52636-.13152-.53625-.63968-.014-.71992-.08554-1.43854-.09787-2.15843a3.24481,3.24481,0,0,1,.1697-1.174.8013.8013,0,0,1,1.27416-.25089,1.10384,1.10384,0,0,1,.13684.62115A9.66272,9.66272,0,0,1,59.62039,73.917Z"/><path class="cls-3" d="M56.40988,73.94718a12.73535,12.73535,0,0,1-.11446,1.7676.36775.36775,0,0,1-.32848.38157,2.74825,2.74825,0,0,1-.73549.00179c-.17169-.02451-.27007-.13936-.29976-.38775a18.373,18.373,0,0,1-.165-2.65411,2.01294,2.01294,0,0,1,.27185-1.10044.58356.58356,0,0,1,.69574-.283c.29791.0796.54527.141.57365.58371A15.20716,15.20716,0,0,1,56.40988,73.94718Z"/></svg>