<svg id="Layer_1" data-name="Layer 1" xmlns="http://www.w3.org/2000/svg" viewBox="0 0 140 140"><defs><style>.cls-1{fill:#fff;}</style></defs><title>logo</title><path class="cls-1" d="M70,138.25564c-36.83352,0-67.01654-30.183-67.01654-67.35757A67.10207,67.10207,0,1,1,70,138.25564Zm.17052-1.3642A65.82285,65.82285,0,1,0,4.34766,71.06859,65.93649,65.93649,0,0,0,70.17052,136.89144Z"/><path class="cls-1" d="M70.34105,138.76721h-.51158a66.83221,66.83221,0,0,1-47.57662-19.781A67.766,67.766,0,0,1,70,3.19944h0a67.76594,67.76594,0,0,1,47.74715,115.78682A66.151,66.151,0,0,1,70.34105,138.76721ZM70,137.57354h.341a65.39654,65.39654,0,0,0,46.55348-19.26939,66.43038,66.43038,0,0,0,11.76626-78.44173,66.68574,66.68574,0,0,1-11.59574,78.44173A67.44446,67.44446,0,0,1,70,137.57354h0a66.91158,66.91158,0,0,1-47.065-19.61043A66.9046,66.9046,0,0,1,9.2929,44.12556,66.62825,66.62825,0,0,0,23.276,118.13364,65.65929,65.65929,0,0,0,70,137.57354Zm.17052-131.6457a65.14075,65.14075,0,1,0,0,130.28149c35.81037-.17052,65.14077-29.33039,65.14077-64.97022A65.20779,65.20779,0,0,0,70.17052,5.92784Zm0-1.19368h0a65.30327,65.30327,0,0,1,32.22933,8.35576A62.30681,62.30681,0,0,0,70.17052,4.73416h0A64.04314,64.04314,0,0,0,44.59169,9.84993,64.04314,64.04314,0,0,1,70.17052,4.73416Z"/><path class="cls-1" d="M70.17052,9.84993A61.21878,61.21878,0,1,1,8.78133,71.06859,61.16757,61.16757,0,0,1,70.17052,9.84993ZM9.80448,71.06859A60.19552,60.19552,0,1,0,70,10.87309,59.9651,59.9651,0,0,0,9.80448,71.06859Z"/><path class="cls-1" d="M70.17052,132.96936h0A61.85768,61.85768,0,0,1,26.516,27.24353,61.29736,61.29736,0,0,1,70,9.16783h.17052a61.97839,61.97839,0,0,1,43.65454,105.72581A61.397,61.397,0,0,1,70.17052,132.96936Zm0-121.5847A58.93239,58.93239,0,0,0,27.88019,29.11931,58.81219,58.81219,0,0,0,10.48658,71.06859h0A59.67668,59.67668,0,0,0,70,130.75252h0a59.38593,59.38593,0,0,0,59.51341-59.5134,59.0324,59.0324,0,0,0-17.73466-42.46085A58.73332,58.73332,0,0,0,70.17052,11.38466Z"/><path class="cls-1" d="M96.602,107.04947c.85263.341,1.70526.51158,2.55789.85263a.62287.62287,0,0,0,.85262-.34105,9.37231,9.37231,0,0,1,1.19368-1.53473c.17053-.17052.17053-.51158.34106-.341.17052,0,.17052.341.17052.51157v1.87578c0,.51158.17052.68211.6821.85263a13.36486,13.36486,0,0,1,2.38736.85263,11.75786,11.75786,0,0,1-1.70525.6821c-1.53473.51158-1.19368.17052-1.19368,1.70526v1.70525c-.341,0-.341-.17052-.51158-.341-.341-.341-.51157-.68211-.85262-1.02316-.68211-1.02315-.68211-1.02315-2.04631-.6821-.51158.17052-1.02315.341-1.70526.51158a5.98258,5.98258,0,0,1,.85263-1.36421c.341-.51158.85263-.85263.85263-1.36421s-.51158-.85262-.85263-1.36421A2.29247,2.29247,0,0,1,96.602,107.04947Z"/><path class="cls-1" d="M34.01911,109.26631a12.56139,12.56139,0,0,1,2.38736-.68211c.51157-.17052.6821-.341.51157-.85262v-2.38736c.17053,0,.17053.17052.34105.17052A10.35139,10.35139,0,0,1,38.45277,107.22c.17053.34105.51158.34105.85263.34105.85263-.34105,1.53473-.51158,2.38736-.85263l.17052.17052a9.37127,9.37127,0,0,1-1.19368,1.53474c-.6821.85262-.6821.85262,0,1.87577a9.37194,9.37194,0,0,0,1.19368,1.53474c-.17052.17052-.34105,0-.51157,0a9.61363,9.61363,0,0,1-2.04631-.68211.62288.62288,0,0,0-.85263.341,14.74911,14.74911,0,0,1-1.19368,1.70525.167.167,0,0,1-.17052.17053c-.17053,0-.17053-.17053-.17053-.34105v-2.0463a.78779.78779,0,0,0-.51157-.85263,13.365,13.365,0,0,1-2.38736-.85261Z"/><path class="cls-1" d="M113.65454,57.42655a2.416,2.416,0,0,0,1.87578-.17052,1.01111,1.01111,0,0,0,.51158-1.53474l-1.53473-1.53473c-.341-.34105-.341,0-.85263,0a38.47,38.47,0,0,0-3.75156,1.87578.5626.5626,0,0,1-.85263,0,.7745.7745,0,0,1,0-.85263,8.99326,8.99326,0,0,0,.51159-2.04631c.17052-.6821.6821-.6821,1.19367-.85262.6821-.34106.85263-.51158.17052-1.02316a3.40622,3.40622,0,0,1,1.19368-5.79786c.85262-.34106,1.3642,0,2.21683.51157a5.14658,5.14658,0,0,1,.85263,3.24c-.17052.85262,0,.85262.6821.51157,1.02316-.51157,1.02316-.51157.51159-1.53473a65.42852,65.42852,0,0,0-5.45682-8.52627c-.341-.51158-.51158-.51158-.85262,0a3.62961,3.62961,0,0,1-4.60419,1.53473c-.68211-.17053-.51158.17052-.51158.51157.17052,1.53473.341,2.89894.51158,4.43366,0,.17053.17052.17053.17052.51158,0,.17053.34105.6821-.17052.85263s-.85263,0-.85263-.51158c-.341-1.87578-.51158-3.75156-.68211-5.62734a22.85331,22.85331,0,0,1,.17053-3.41051c.17052-.6821.341-1.19368,1.02315-1.19368.6821-.17053,1.02315.17053,1.53473.6821.34105.51158.51157.85263.85262,1.36421.17052.51157.341.51157.51158.51157,1.02315-.17053,1.36421-1.19368.51158-2.04631q-2.30209-2.55787-5.11576-5.11576c-.341-.34105-.51158-.34105-.85263,0-1.53473,2.21683-3.24,4.43366-4.77471,6.65049-.17053.17053-.34106.51158-.51158.51158-.341,0-.341-.51158-.341-.6821a3.45531,3.45531,0,0,1,1.02315-4.60419c.51157-.34106.341-.68211-.341-.85263a6.49175,6.49175,0,0,1-2.72841-1.87578,1.81253,1.81253,0,0,0-2.04631-.17053c-.17052.17053,0,.341-.17052.6821a12.23167,12.23167,0,0,0,.85263,3.581c0,.17052.17052.51157-.17052.6821a.759.759,0,0,1-1.02316-.34105,21.21173,21.21173,0,0,1-1.02315-7.3326v-.17052c.17053-.68211.34106-1.02316,1.02315-1.19368s1.02316.17052,1.53474.51157c.17052.17053.34105.6821.6821.51158a1.91947,1.91947,0,0,0,.85263-1.36421c0-.17052-.17052-.17052-.34105-.341-.68211-.341-1.36421-.85263-2.04631-1.19368-.34105-.341-.51158-.51158-.34105-.85263.85262-1.70525.6821-1.53473,2.21683-.6821a60.05342,60.05342,0,0,1,27.45461,34.44616,50.75057,50.75057,0,0,1,2.55789,18.41675,14.58312,14.58312,0,0,0,0,2.72841c0,.34105-.17053.6821-.51159.51157-1.70525,0-1.70525,0-1.53473-1.70525.17053-.68211,0-1.19368.17053-2.04631,0-.34105-.17053-.51158-.51159-.34105a5.25717,5.25717,0,0,1-1.70525.17052,4.14463,4.14463,0,0,1-3.06947-1.53473c-.51158-.51158-.51158-.51158-.85262,0-.85263,1.3642-1.70526,2.7284-2.38736,4.09261,0,.17053-.17053.68211-.51159.51158-.341,0-.6821-.68211-.51158-1.02315a48.12918,48.12918,0,0,1,3.06947-4.94524,10.81069,10.81069,0,0,1,1.87578-2.21684,1.52522,1.52522,0,1,1,2.7284,1.36421,1.28908,1.28908,0,0,1-.17052.6821c-.17052.85263,0,1.02315.85263,1.19368,1.02315.17053,1.36421-.341,1.19367-1.19368-.17052-2.38736-.51158-4.43366-.68211-6.6505-.17052-.6821-.341-.6821-.85262-.51157-2.72841.51157-5.28629,1.19368-8.18523,1.70525-.17053,0-.68211.34106-.85263-.17052-.17052-.17052.17052-.6821.17052-.85263a3.68175,3.68175,0,0,1,3.581-2.7284c1.70526-.17052,3.24-.68211,4.94525-1.02315.51158-.17052.6821-.34105.51158-.68211a45.60519,45.60519,0,0,0-2.89893-8.52627c-.17052-.51158-.341-.51158-.6821-.34105h-.17053c-.85262.51157-.85262.51157-.341,1.19368a4.16818,4.16818,0,0,1-.34105,4.43366c-1.02315,1.53473-2.38736,1.70525-3.92209,1.53473-.341,0-.51158-.34105-.341-.68211a4.45728,4.45728,0,0,1,.51158-1.3642c.17053-.6821.341-.6821.85263-.6821ZM98.30724,31.50667a2.27215,2.27215,0,0,0,2.38736-1.70526c0-.17052-.17052-.17052-.17052-.51157-.85263-.51158-1.70526-1.3642-2.55789-1.87578-.341-.341-.341,0-.6821.17052-.34105.51158-.68211,1.19368-1.02315,1.70526-.17053.17053-.34105.341,0,.341A3.05566,3.05566,0,0,0,98.30724,31.50667Zm13.81257,16.37045c-.341,0-.68211.17053-.68211.51157s0,.85263.17052,1.02316a6.44327,6.44327,0,0,0,2.0463,1.53473c.341.34105.51159-.17053.341-.34106a3.58283,3.58283,0,0,0-1.19367-2.38735C112.46085,48.04765,112.29033,47.87712,112.11981,47.87712Z"/><path class="cls-1" d="M30.6086,47.02449a1.99065,1.99065,0,0,1-1.70526,0,1.17716,1.17716,0,0,1-.85263-1.70525A4.597,4.597,0,0,1,29.24439,43.955c.51158-.51157.51158-.6821.17053-1.19368a1.124,1.124,0,0,0-1.87578.17053c-1.19368,2.04631-2.38736,4.26314-3.581,6.30945-.34105.51157,0,.6821.341,1.02315,2.55788.85263,5.11577,1.70525,7.67365,2.72841.17053.17052.6821,0,.51158.51157.17052.34106-.34106.51158-.51158.68211h0c-2.04631,1.19368-2.04631,1.19368-4.60419.17052-1.3642-.51157-1.3642-.51157-1.70526.85263-.34105.6821-.51157,1.3642-.85262,2.04631-.51158,1.53473.51157,2.38736,2.21683,2.21683A6.37944,6.37944,0,0,0,29.756,58.27918c.17052,0,.51157-.51158.6821,0a.63947.63947,0,0,1,0,1.02315,9.1443,9.1443,0,0,1-4.60419,1.87577,3.8069,3.8069,0,0,1-2.38736-.51157c-.51158-.34105-.6821,0-.85263.17052-.17052.51158-.341.68211-.341.85263-.17052.51158-.341.51158-.6821.341-.51158-.17052-.85263-.17052-.6821-.85263.85263-1.87577,1.53473-3.581,2.21683-5.45681.341-.68211.51158-1.36421.85263-2.04631.17053-.51158,0-.68211-.34105-.68211-.51158-.17052-.6821-.6821-1.02316,0a50.21026,50.21026,0,0,0-3.24,11.25469c0,.17052-.17053.17052.17053.34105,0,.17052.17052,0,.34105-.17052A2.16074,2.16074,0,0,1,22.935,65.44124c.341.34105.51157.34105.6821,0a1.7648,1.7648,0,0,1,1.19368-.85263,2.41957,2.41957,0,0,1,3.06946,2.04631,5.72673,5.72673,0,0,1-1.19368,5.11576,26.966,26.966,0,0,1-4.94524,3.75156c-.17053,0-.34106.34106-.51158-.17052-.17053-.34105-.34105-.6821,0-1.02315l.341-.34105c1.02315-.85263,2.21683-1.53473,3.24-2.55788a3.71559,3.71559,0,0,0,.68211-3.92209c0-.17052-.34106-.51158-.51158-.6821-.6821-.34106-1.36421.17052-1.53473,1.02315a6.6283,6.6283,0,0,1-.341,2.55788c-.17053.51157-.341.6821-.6821.51157-.341.17053-.85263,0-1.19368,0-.34105.17053-.6821,0-.51158-.51157a8.32,8.32,0,0,0,.17053-2.89894c0-.17052,0-.17052-.17053-.341-.17052-.85263-.51158-1.3642-1.02315-1.19368-.6821,0-1.02316.68211-1.36421,1.3642-.17052,1.87578-.341,4.09262-.341,5.9684v1.87578c0,.17052,0,.17052.17053.341-.51158.51157-1.02316.17052-1.53473.341-.341.17052-.51158-.17052-.51158-.51158,0-2.0463,0-3.92208.17053-5.96839a60.44435,60.44435,0,0,1,10.91363-29.842,23.76006,23.76006,0,0,1,2.55789-3.24c.341-.51157.51157-.51157,1.02315-.17052,1.19368,1.02315,1.19368.85262.17053,2.0463a8.56836,8.56836,0,0,0-1.36421,2.04631c-.341.51158-.341.6821.17053.85263A4.24028,4.24028,0,0,1,32.48438,43.955a1.45654,1.45654,0,0,1,0,1.19368c-.17053.34106.17053.34106.51157.34106A27.20854,27.20854,0,0,0,36.918,43.7845c.17053,0,.51158-.34105.6821-.34105s.51158-.51158.6821,0c.17053.34105.17053.85263-.17052,1.02315-.17053,0-.51158.34105-.6821.34105C35.38331,45.31924,32.996,46.34239,30.6086,47.02449Z"/><path class="cls-1" d="M62.32635,29.63089c.6821.341,1.53473.51158,2.0463.85263.17053,0,.34106.17053.17053.17053l-.17053.17052a2.06163,2.06163,0,0,1-2.38736.17053,3.43833,3.43833,0,0,0-2.89893-.341,4.8616,4.8616,0,0,1-4.09262-1.02316c-1.70525-1.53473-1.53473-3.24.341-4.26314a18.18273,18.18273,0,0,1,3.24-1.19367c.85263-.34106.85263-.34106.51158-1.02316,0-.341-.341-.51158-.68211-.341a92.79891,92.79891,0,0,0-8.86733,3.24c-.51157.34106-.51157.51158-.34105,1.02316,1.19368,2.38736,2.72841,4.60419,3.92209,6.99155.17052.17052.51157.34105.34105.85262a.56258.56258,0,0,1-.85263,0,3.46919,3.46919,0,0,0-.85263-.17052,2.55748,2.55748,0,0,1-2.38735-1.87578c-.341-.51158-.51158-.34106-.6821,0-.85263,1.53472-1.53473,2.7284-2.38736,4.09261-.17053.17052-.34105.6821-.6821.85262-.17053.34106-.51158.51158-1.02316.17053-1.53473-.85263-1.53473-.51157-.341-1.87578a16.078,16.078,0,0,1,1.70526-1.70526,4.49967,4.49967,0,0,0-1.19368-.17052c-1.36421,0-2.55789-.34105-3.06946-1.70526-.17053-.34105-.51158-.85262-.6821-1.19368s-.17053-.341-.6821-.17052h0c-1.19368.6821-1.19368.6821-2.04631-.34106-.17053-.34105-.34105-.51157.17052-1.02315A45.61528,45.61528,0,0,1,43.22748,26.732a80.69741,80.69741,0,0,1,13.642-5.96839c.17052,0,.341,0,.51158-.341a2.06115,2.06115,0,0,0-1.70526-.51158c-.85263,0-1.53473.17053-2.55788.17053-.341,0-.85263,0-.85263-.51158-.17053-.34105-.341-.85263-.51158-1.19368s0-.6821.34106-.6821c2.38736-.6821,4.43366,0,6.48,1.36421a1.53535,1.53535,0,0,0,1.70525.17052c1.19368-.341,2.55788-.6821,3.75156-1.02315.68211,0,.85263.17053.85263.51158.17053,1.3642.17053,1.3642-1.02315,1.70525a5.03642,5.03642,0,0,1-2.21683.341c-.6821,0-.51157.34105-.34105.85263.34105.51158.6821,1.3642,1.02315,1.87578.17052.34105,0,.6821-.34105.6821a22.71721,22.71721,0,0,1-3.24.85263,8.81785,8.81785,0,0,0-2.21683,1.02315c-.341.51158-.51158.6821-.341,1.19368a1.21541,1.21541,0,0,0,1.02315.51158,1.62343,1.62343,0,0,0,1.19368-.34106c.17052,0,.34105-.17052.34105-.51157a1.45,1.45,0,0,1,.51157-.85263,3.06539,3.06539,0,0,1,2.72841-.6821,1.91944,1.91944,0,0,1,1.3642.85263c.34106.51157-.17052,1.02315-.51157,1.53473C62.6674,29.46037,62.49688,29.63089,62.32635,29.63089Zm-16.71151,3.581h.34106A4.5247,4.5247,0,0,0,47.49063,30.654v-.341c-.34106-.51158-.68211-1.3642-1.02316-1.87578-.17052-.17053-.17052-.341-.6821-.17053l-2.55788,1.53473c-.17053.17053-.34106.17053-.17053.6821a25.67081,25.67081,0,0,0,1.70526,2.89894C44.93274,33.0414,45.10327,33.38245,45.61484,33.21192Z"/><path class="cls-1" d="M70.17052,23.492a6.90958,6.90958,0,0,1-1.87577,0c-.51159-.17052-.85264-.17052-1.02316-.341-.85263-.341-1.53473-.6821-1.53473-1.70526.17052-1.02315.34105-2.0463,1.53473-2.38735a4.10471,4.10471,0,0,1,5.28629,1.3642,4.26628,4.26628,0,0,1-1.02315,5.79787c-.341.17053-1.02315.34105-.85263.85263,0,.341.51158.51157.6821,1.02315a13.84677,13.84677,0,0,1,1.53474,1.70526c.17052.17052.17052.341-.17053.6821a1.00638,1.00638,0,0,1-1.53473-.341L69.3179,28.26669c-.51157-.34106-.85262-.68211-1.53473-.51158-.6821,0-1.19368-.17053-1.87578-.17053a1.75121,1.75121,0,0,1-.85262-2.21683,1.63442,1.63442,0,0,1,2.21683-.85262l1.02315.51157c.17052.17053.34105.17053.85262,0C69.3179,24.51512,69.82947,24.17407,70.17052,23.492Zm.6821-2.55788c0-.85263-.341-1.19368-.85262-1.19368-.85263,0-1.19368.6821-1.02316,1.53473a1.07724,1.07724,0,0,0,1.19368,1.19368C70.51157,22.63934,71.02315,21.95724,70.85262,20.93409Z"/><path class="cls-1" d="M75.45681,28.09616c0-2.21683-.17052-4.26314-.17052-6.48,0-.85263,0-.85263-.85263-.85263-1.02315.17053-1.02315.17053-1.19368-1.19368-.17052-1.02315.17053-1.02315,1.19368-1.19367a33.089,33.089,0,0,1,5.79787.341c.68211,0,.85263.341.68211.6821-.17052,1.70525,0,1.3642-1.53473,1.19368-1.19368-.17053-1.19368-.17053-1.36421,1.19367,0,2.38736,0,4.60419.17053,7.16208,0,.34105.341,1.02315-.34106,1.02315-.34105.17053-.6821-.341-1.02315-.51157-.51157-.34106-.85262-.68211-1.3642-1.02316C75.62734,28.60774,75.45681,28.43721,75.45681,28.09616Z"/><path class="cls-1" d="M70.17052,34.74666A36.32194,36.32194,0,1,0,106.49246,71.0686,36.24289,36.24289,0,0,0,70.17052,34.74666ZM66.419,105.8558c-.341.6821-.341.6821-1.02315.6821A34.81246,34.81246,0,0,1,37.77067,85.90432a37.78945,37.78945,0,0,1-2.89893-11.25468,36.901,36.901,0,0,1,2.38735-16.541c.17053-.34105.34106-.51158.6821-.17052A26.99316,26.99316,0,0,0,50.56008,63.395a41.94633,41.94633,0,0,1,7.67366,1.87578,13.18258,13.18258,0,0,1,6.821,4.94525,8.40462,8.40462,0,0,1,1.87578,4.94524,45.36638,45.36638,0,0,1-.51158,4.77471c-.341,1.87578-.51157,3.75156-.6821,5.62734a30.77583,30.77583,0,0,0-.17053,5.28629,39.42808,39.42808,0,0,0,1.02315,4.60419A14.60557,14.60557,0,0,1,66.419,105.8558Zm3.06946-41.26718a12.74377,12.74377,0,0,0-2.21683-1.87578,20.7881,20.7881,0,0,0-8.6968-4.26313c-2.89894-.68211-5.96839-1.19368-8.86733-2.04631a23.49828,23.49828,0,0,1-6.6505-2.21683,15.92234,15.92234,0,0,1-2.55788-2.21683c-.17052-.34105-.34105-.6821,0-.85263a34.49563,34.49563,0,0,1,17.05255-13.301,39.56837,39.56837,0,0,1,9.72-2.04631h2.21683c0,.17053,0,.17053-.17052.34106h1.70525c0-.17053-.17052-.17053-.17052-.34106-.34105-.51157.17052-.34105.341-.34105a32.65716,32.65716,0,0,1,6.99155.85263,36.1237,36.1237,0,0,1,17.22308,9.71995,35.65208,35.65208,0,0,1,3.92209,4.94524c.17052.34106.17052.51158,0,.68211a10.414,10.414,0,0,1-3.581,3.06945A33.3582,33.3582,0,0,1,88.75782,56.915,77.69429,77.69429,0,0,0,79.72,59.1318a23.747,23.747,0,0,0-7.84418,3.75157l-1.3642,1.3642L70,64.75914Zm7.16207,41.26718c-.6821.17052-1.3642.17052-2.21683.341-.51157.17052-.6821.17052-.51157-.51158a30.97493,30.97493,0,0,0,.51157-5.45681,31.44592,31.44592,0,0,0-1.02315-6.99155,29.99531,29.99531,0,0,1-1.02315-7.84417,42.1714,42.1714,0,0,1,.85263-6.48,15.40492,15.40492,0,0,0,.6821-4.77471,7.50917,7.50917,0,0,1,.34106-2.7284,7.74283,7.74283,0,0,1,3.06946-3.581c2.21683-1.53473,5.11576-2.38736,7.84417-3.24,3.41051-.85262,6.6505-1.70525,9.89048-2.7284a19.33287,19.33287,0,0,0,6.6505-3.581,3.71959,3.71959,0,0,0,.85262-.68211c.34106-.17052.34106-.17052.51158.17052.6821,1.87578,1.19368,3.75157,1.70525,5.62734a37.7993,37.7993,0,0,1,.68211,7.67365c-.17052,9.20838-3.06946,17.05255-9.20838,23.703A34.54048,34.54048,0,0,1,76.65049,105.8558Z"/><path class="cls-1" d="M88.58728,77.71909a3.75486,3.75486,0,0,0-.17052-1.36421c-.17052-.17052-.17052-.341-.51158-.341a.62645.62645,0,0,1-.51157-.17052c-.341-.17052-.51158-.341-.341-.68211l.51157-.51157c.51158-.17052.51158-.341.341-.85263,0-.17052-.17052-.17052-.17052-.341a.899.899,0,0,1,.341-1.19368A3.53819,3.53819,0,0,0,89.09886,70.557a11.54972,11.54972,0,0,1,3.41051-4.09261c.17053-.17052.17053-.17052.17053-.341.17052-.34106.6821-.51158,1.02315-.68211.17052,0,.17052,0,.341.17053a9.23023,9.23023,0,0,1,3.92209,3.75156,17.04085,17.04085,0,0,1,1.3642,2.38736c0,.17052.17052.17052.17052.341,0,.341.17053.51158.51158.6821.17052,0,.341.17053.51157.34106a.64262.64262,0,0,1-.17052,1.02315,2.05484,2.05484,0,0,0-.85263.85263.74985.74985,0,0,0,.17053.85262l.51157.51158a.47829.47829,0,0,1-.341.85263c-.51158.17052-.51158.341-.68211.85262a14.04788,14.04788,0,0,1-3.41051,6.48,33.874,33.874,0,0,1-4.60419,3.75156,5.98775,5.98775,0,0,0-1.70525,1.36421,1.81225,1.81225,0,0,0,.17052,2.38736c.17052.17052.341.34105.341.51157.17052.17052,0,.51158-.17052.341a6.8424,6.8424,0,0,1-2.55788-.51157c-.34106-.17052-.51158-.34105-.85263-.51158a.31975.31975,0,0,0-.51158,0,1.883,1.883,0,0,0,0,1.36421c.17053.17052.17053.51157.34106.51157.17052.341,0,.51158-.34106.51158a1.45823,1.45823,0,0,1-1.53473-.51158,2.824,2.824,0,0,1-.85263-2.04631c0-.51157-.17052-.51157-.6821-.341-.68211.341-.85263,1.02315-1.19368,1.70526a1.02521,1.02521,0,0,0-.17053.6821,3.24215,3.24215,0,0,0,.17053,2.21683c.17052.17052.17052.51158.341.85263s0,.51157-.341.51157a3.45209,3.45209,0,0,1-2.38736-1.3642,4.93143,4.93143,0,0,1-.17053-6.48.167.167,0,0,1,.17053-.17052c.51157-.51157.51157-.85263-.17053-1.19368a6.52226,6.52226,0,0,1-2.0463-3.06946,3.63009,3.63009,0,0,1,.51157-2.7284,5.30809,5.30809,0,0,1,3.24-1.87578h.17052c.17053,0,.51158,0,.51158.341,0,.17052-.17052.17052-.51158.341a2.40846,2.40846,0,0,0-1.19368,2.55789c.17053.34105.17053.85262.51158,1.02315,0,0,.17052.17052,0,.17052-.17052.17052-.17052,0-.17052,0a1.7144,1.7144,0,0,1-.85263-1.87578,7.38517,7.38517,0,0,0,.17052-.85263.62645.62645,0,0,0-.17052-.51157c-.17053-.17052-.341,0-.51158.17052a3.55794,3.55794,0,0,0-1.19368,3.06946,4.35962,4.35962,0,0,0,2.38736,3.581c.17053.17053.17053.17053.17053.34106l-.34106.341a4.76067,4.76067,0,0,0-1.3642,4.60419,4.457,4.457,0,0,0,.51158,1.3642,2.99369,2.99369,0,0,0,.6821.85263.62646.62646,0,0,0,.51158.17052c.17052-.17052.17052-.17052.17052-.51157a3.1548,3.1548,0,0,1,0-2.0463,4.37272,4.37272,0,0,1,2.04631-3.06946c.17052-.17053.341-.34106.17052-.51158s-.17052-.17052-.51158-.17052A1.79083,1.79083,0,0,0,80.402,90.679c-.17052.17052-.341.51157-.51157.6821s-.17053.68211-.51158,1.02315c0,.17052,0,.17052-.17052.17052a.167.167,0,0,1-.17053.17053l-.17052-.17053a5.44241,5.44241,0,0,1,1.53473-2.7284c.17053-.17052.51158-.17052.85263-.51158.17052-.17052.17052-.17052.17052-.51157a2.53421,2.53421,0,0,0-.341-1.53473c-.17052-.17053-.17052-.17053,0-.51158.51158-.51157.341-.85263-.17052-1.3642-.341-.17052-.341-.34105-.17052-.68211a2.1629,2.1629,0,0,0,.17052-1.02315.93777.93777,0,0,1,.51157-.85262c.17053-.17053.34106-.17053.51158.17052.17052.17052.17052.51157.34105.51157.17053.17053.341.34106.51158.34106a.62648.62648,0,0,0,.17052-.51158v-.6821c.17052-.34106.34105-.51158.51158-.17053a.167.167,0,0,1,.17052.17053c.51157.34105.85263.51157,1.3642.17052a5.41947,5.41947,0,0,0,1.70526-1.70526,1.02526,1.02526,0,0,0,.17052-.6821A2.57875,2.57875,0,0,0,88.58728,77.71909Zm7.3326-4.09262A2.5345,2.5345,0,0,0,96.943,73.456a6.49589,6.49589,0,0,0,1.70525-.51158c.51158-.17052.51158-.51157.51158-1.02315a4.64188,4.64188,0,0,0-1.3642-2.7284l-.17053-.17052a17.859,17.859,0,0,0-1.3642-1.87578c-.51157-.51158-1.3642-1.02315-2.04631-1.70526-.17052-.17052-.17052-.17052-.341,0a1.44993,1.44993,0,0,0-.51157.85263,6.8401,6.8401,0,0,0-.17053,3.24c0,.34105.17053.51157.17053.85262,0,.17053,0,.17053-.17053.34106-.17052,0-.17052,0-.341-.17053a1.27785,1.27785,0,0,1-.17052-.85262,8.30214,8.30214,0,0,1-.17053-2.04631.62648.62648,0,0,0-.17052-.51158c-.17052-.17052-.341,0-.51157.17053A8.70073,8.70073,0,0,0,89.781,70.72756c-.17052.51157-.341,1.02315.17052,1.53473a.93777.93777,0,0,0,.85263.51157A12.9237,12.9237,0,0,0,95.91988,73.62647ZM83.98309,87.098c0,.34105,0,.51158.17052.68211a1.883,1.883,0,0,0,1.36421,0c.6821-.51158,1.53473-.68211,2.38736-1.19368.51157-.51158,1.3642-.85263,1.70525-1.53474.68211-.85262,1.36421-2.0463,2.04631-2.7284a.62647.62647,0,0,0,.17052-.51158c.34106-.85263.51158-2.04631.85263-2.89893a8.30261,8.30261,0,0,0,.17052-2.04631c0-.51158,0-.51158-.51157-.6821a8.3021,8.3021,0,0,0-2.04631-.17053c-.51157-.17052-.85263.17053-1.02315.85263-.17052.85263,0,2.04631-.17052,2.89893a9.72493,9.72493,0,0,1-1.87578,4.77472,8.6758,8.6758,0,0,1-2.72841,2.21683C83.98309,86.58641,83.98309,86.75694,83.98309,87.098ZM90.29254,74.4791c-.34106.17052-.85263.17052-1.19368.341-.17053.17053-.51158.17053-.68211.341a.62648.62648,0,0,0-.17052.51158c.17052.17052.17052,0,.34105,0s.17052,0,.17052-.17052a6.99474,6.99474,0,0,1,1.87578-.17053c1.36421,0,2.89894.17053,4.26314.17053a.62648.62648,0,0,1,.51158.17052,20.06048,20.06048,0,0,1,3.41051,1.19368c.17052.17052.17052.17052.341.17052s.34105.17053.34105,0c.17053-.17052.17053-.341-.17052-.51157,0-.341-.17052-.341-.341-.341a9.77509,9.77509,0,0,0-2.38736-.68211,7.06927,7.06927,0,0,0-2.72841-.51157c-.51157,0-.85263.17052-1.3642-.17053h-.17052a5.25721,5.25721,0,0,1-1.70526-.17052C90.63359,74.4791,90.46306,74.4791,90.29254,74.4791ZM87.56412,90.5085a.88857.88857,0,0,0,.17053,1.3642c.17052.17053.51157.17053.51157.34106.17053.17052.17053.17052.51158.17052a.62646.62646,0,0,0,.17052-.51158A4.72122,4.72122,0,0,1,88.7578,90.338c0-.17052,0-.17052-.17052-.17052s-.17053.17052-.17053.341v.51158a.167.167,0,0,1-.17052.17052l-.17052-.17052C87.73465,90.679,87.73465,90.5085,87.56412,90.5085Zm-2.38735.6821c0-.17052,0-.51158-.17052-.51158s-.17052.17053-.341.34106a3.2421,3.2421,0,0,0,.17052,2.21683l.34105.34105c.17052.17052.17052.17052.341-.17052.17053-.17053,0-.51158-.17052-.85263S84.83572,91.70217,85.17677,91.1906Zm11.59574-10.061c0-.341,0-.51158-.34106-.51158s-.17052.341-.341.51158v.17052c.17052.341.17052.51158-.341.68211-.17052,0-.17052.17052-.17052.51157q0,.25578.51157.51158c.17052.17052.341-.17053.341-.17053A14.77023,14.77023,0,0,1,96.77251,81.1296ZM83.13046,87.439a1.40081,1.40081,0,0,0,.17053,1.19368,5.1056,5.1056,0,0,0,.6821,1.3642l.17052.17052c.17053-.17052.17053-.17052,0-.341,0-.17052-.17052-.51158-.17052-.68211C83.642,88.63272,83.47152,87.95062,83.13046,87.439ZM96.602,76.86646a.76871.76871,0,0,0-.51157-.51158c-.17052,0-.34105.17053-.34105.51158s.17052.85263.51157.85263C96.26093,77.54856,96.602,77.20751,96.602,76.86646Zm-2.0463,3.92209c0,.17052.17052.51157.34105.51157a.7687.7687,0,0,0,.51157-.51157c0-.34106-.17052-.34106-.51157-.51158S94.55568,80.44749,94.55568,80.78855ZM93.362,85.22221c0,.17052.17052.51157.34105.51157s.51157-.51157.51157-.6821a.36676.36676,0,0,0-.341-.34106C93.70305,84.54011,93.362,84.88115,93.362,85.22221ZM97.62513,77.378c0,.34106.17053.68211.51158.51158.17052,0,.34105-.17052.34105-.51158a.54448.54448,0,0,0-.51157-.51157C97.62513,77.037,97.45461,77.20751,97.62513,77.378Zm-2.89893.6821a.45217.45217,0,0,0,.51157.51158.36676.36676,0,0,0,.34106-.341c0-.34106-.17053-.68211-.51158-.68211C94.7262,77.71909,94.7262,77.88961,94.7262,78.06013Zm-4.26314,8.35576c0,.341.17052.51157.341.51157a.76869.76869,0,0,0,.51158-.51157c0-.34106-.17053-.34106-.51158-.34106C90.46306,85.90431,90.46306,86.24536,90.46306,86.41589ZM95.4083,83.517c0-.17052,0-.51157-.341-.51157a.54448.54448,0,0,0-.51157.51157c0,.17052,0,.51158.17052.51158C95.06725,84.19906,95.4083,83.68748,95.4083,83.517Zm-1.3642-6.821c0,.17052-.17052.341.17052.51158.17053,0,.17053-.17053.34106-.34106s.17052-.17052.17052-.341,0-.17052-.17052-.34105c-.17053,0-.34106,0-.34106.17052C94.0441,76.35488,94.0441,76.69593,94.0441,76.69593ZM96.602,78.57171c0,.17053,0,.51158.34106.51158.17052,0,.34105-.17052.34105-.51158a.54448.54448,0,0,0-.51158-.51157C96.602,78.06013,96.602,78.40119,96.602,78.57171Zm1.19368-4.26313c.341-.17053.85262.17052,1.19368-.17053.17052-.17052.51157-.17052.341-.51157-.17052-.17052-.51158,0-.51158,0C98.30724,73.96752,98.13671,74.30858,97.79566,74.30858Z"/><path class="cls-1" d="M95.91988,68.51071a1.19368,1.19368,0,1,1-1.19368,1.19368A1.1656,1.1656,0,0,1,95.91988,68.51071Z"/><path class="cls-1" d="M70.17052,107.39053a36.4073,36.4073,0,1,1,36.32194-36.49246A36.498,36.498,0,0,1,70.17052,107.39053Zm0-71.27967a34.702,34.702,0,1,0,34.78721,34.61668A34.78767,34.78767,0,0,0,70.17052,36.11086Z"/><path class="cls-1" d="M52.09481,80.78855a1.02521,1.02521,0,0,1,.17053.6821,5.41968,5.41968,0,0,0,1.70526,1.70526c.51157.341.85263.17052,1.3642-.17053a.167.167,0,0,0,.17052-.17052c.17053-.17052.51158-.17052.51158.17052v.68211c0,.17052,0,.51157.17052.51157s.51158-.17052.51158-.34105c.17052-.17052.17052-.341.34105-.51158s.17052-.17052.51158-.17052c.341.17052.341.51158.51157.85263s0,.6821.17052,1.02315.17053.51157-.17052.6821c-.51157.51158-.6821.68211-.17052,1.36421a.31974.31974,0,0,1,0,.51157,2.29254,2.29254,0,0,0-.341,1.53473c0,.17053.17052.34106.17052.51158.17052.17052.51157.17052.85263.51157a5.44248,5.44248,0,0,1,1.53473,2.72841c0,.17052,0,.17052-.17052.17052s-.17053,0-.17053-.17052l-.17052-.17052c-.17052-.34105-.17052-.85263-.51158-1.02315-.17052-.17053-.341-.51158-.51157-.68211a1.79085,1.79085,0,0,0-1.53473-.85263.62644.62644,0,0,0-.51158.17053.32674.32674,0,0,0,.17052.51157A4.37279,4.37279,0,0,1,58.74531,93.919a3.15463,3.15463,0,0,1,0,2.0463.62646.62646,0,0,0,.17053.51158c.17052.17052.341,0,.51157-.17053a1.70248,1.70248,0,0,0,.68211-.85262c.17052-.51158.341-.85263.51157-1.36421a4.04207,4.04207,0,0,0-1.3642-4.60419l-.341-.341c-.17053-.17052-.17053-.17052.17052-.341a5.25177,5.25177,0,0,0,2.38736-3.581A3.15492,3.15492,0,0,0,60.28,82.15275c-.17052-.17052-.17052-.17052-.51158-.17052-.17052.17052-.17052.17052-.17052.51157a7.38562,7.38562,0,0,1,.17052.85263,1.71441,1.71441,0,0,1-.85262,1.87578c-.17053,0-.17053.17052-.17053,0-.17052-.17053,0-.17053,0-.17053a5.67678,5.67678,0,0,0,.51158-1.02315,2.194,2.194,0,0,0-1.19368-2.55788c-.17053-.17052-.51158-.17052-.51158-.34105.17053-.341.341-.341.51158-.341h.17052a4.88563,4.88563,0,0,1,3.24,1.87577,3.11733,3.11733,0,0,1,.51157,2.72841,4.75321,4.75321,0,0,1-2.0463,3.06946c-.51158.341-.51158.6821-.17053,1.19368l.17053.17052a5.13973,5.13973,0,0,1-.17053,6.48,4.2231,4.2231,0,0,1-2.38736,1.3642c-.34105.17052-.51157-.17052-.34105-.51157.17052-.17053.17052-.51158.34105-.85263a4.72176,4.72176,0,0,0,.17053-2.21683,1.02525,1.02525,0,0,0-.17053-.68211,2.46476,2.46476,0,0,0-1.19368-1.70525c-.51157-.17053-.6821-.17053-.6821.34105a4.37731,4.37731,0,0,1-.85263,2.04631,1.71888,1.71888,0,0,1-1.53473.51157c-.341,0-.51158-.17052-.341-.51157.17052-.17053.17052-.341.341-.51158a1.88293,1.88293,0,0,0,0-1.3642c-.17053-.17052-.17053-.17052-.51158,0a1.4499,1.4499,0,0,1-.85263.51157,6.84222,6.84222,0,0,1-2.55788.51158c-.17052.17052-.34105-.17052-.17052-.34105,0-.17053.17052-.51158.341-.51158a1.81225,1.81225,0,0,0,.17052-2.38736,14.91094,14.91094,0,0,0-1.70525-1.3642,33.874,33.874,0,0,1-4.60419-3.75156,13.26593,13.26593,0,0,1-3.41051-6.48c-.17053-.51158-.17053-.68211-.6821-.85263a.47829.47829,0,0,1-.34106-.85263l.51158-.51157a.74986.74986,0,0,0,.17052-.85263,1.40081,1.40081,0,0,0-.85262-.85263.64262.64262,0,0,1-.17053-1.02315c.17053-.17052.17053-.341.51158-.341.51157-.17052.51157-.341.51157-.6821,0-.17053.17053-.17053.17053-.34106a6.69068,6.69068,0,0,1,1.3642-2.38736,10.3623,10.3623,0,0,1,3.92209-3.75156c.17052-.17052.17052-.17052.34105-.17052.341.17052.85263.341,1.02315.6821,0,.17053.17053.17053.17053.34106A11.54963,11.54963,0,0,1,49.878,70.89806a4.54333,4.54333,0,0,0,1.02315,1.70526.899.899,0,0,1,.34106,1.19368c0,.17052-.17053.17052-.17053.34105-.17053.51157-.17053.6821.34105.85263.17053.17052.51158.341.51158.51157.17052.341,0,.51158-.34105.68211a.62648.62648,0,0,1-.51158.17052c-.17052,0-.341.17052-.51158.34105a3.75483,3.75483,0,0,0-.17052,1.3642C51.58324,78.74224,51.75376,79.76539,52.09481,80.78855ZM49.19588,73.1149a.93779.93779,0,0,0,.85263-.51158c.51157-.51157.17053-1.02315.17053-1.53473a7.07665,7.07665,0,0,0-2.04631-3.41051c-.17053-.17052-.17053-.17052-.51158-.17052-.17052.17052-.17052.17052-.17052.51157a8.3021,8.3021,0,0,1-.17053,2.04631,7.38479,7.38479,0,0,0-.17053.85263c0,.17052-.17052.17052-.341.17052-.17052-.17052-.17052-.17052-.17052-.341,0-.34105.17052-.51158.17052-.85263a6.84023,6.84023,0,0,0-.17052-3.24,3.72764,3.72764,0,0,0-.51158-.85263c-.17052-.17052-.17052-.17052-.34105,0a18.063,18.063,0,0,0-2.04631,1.70526,17.86258,17.86258,0,0,0-1.3642,1.87578c0,.17052,0,.17052-.17053.17052a5.19686,5.19686,0,0,0-1.3642,2.72841.715.715,0,0,0,.51158,1.02315A6.49623,6.49623,0,0,0,43.057,73.797a2.53436,2.53436,0,0,0,1.02315.17053C46.12642,73.62647,47.66115,73.456,49.19588,73.1149Zm6.6505,13.47151A8.67568,8.67568,0,0,1,53.118,84.36958a9.72493,9.72493,0,0,1-1.87578-4.77471,16.54408,16.54408,0,0,1-.17053-2.89894c-.17052-.6821-.51157-.85263-1.02315-.85263a8.30206,8.30206,0,0,1-2.04631.17053c-.6821.17053-.6821.17053-.6821.6821,0,.6821.17053,1.3642.17053,2.04631a18.63145,18.63145,0,0,0,.85262,2.89893c0,.17053.17053.34106.17053.51158a28.43428,28.43428,0,0,1,2.04631,2.7284c.51157.51158,1.19368,1.02315,1.70525,1.53474.85263.51157,1.70526.6821,2.38736,1.19368a1.86807,1.86807,0,0,0,1.36421,0c.17052-.17053.17052-.34106.17052-.68211C56.18743,86.75694,56.18743,86.58641,55.84638,86.58641ZM49.53693,74.64962a5.801,5.801,0,0,1-1.70526.17053h-.17052c-.34105.341-.85263.17052-1.3642.17052a7.72345,7.72345,0,0,0-2.72841.51157,9.77527,9.77527,0,0,0-2.38736.68211,1.7177,1.7177,0,0,0-.51158.17052.6265.6265,0,0,0-.17052.51159c0,.17052.17052,0,.34105,0s.17053,0,.341-.17052a20.06079,20.06079,0,0,1,3.41051-1.19368.62646.62646,0,0,1,.51158-.17053,35.64252,35.64252,0,0,0,4.26314-.17052c.51157,0,1.3642.17052,1.87578.17052l.17053.17053c.17052,0,.17052.17052.34105,0s.17052-.51158-.17053-.51158c-.17052-.17052-.51157-.17052-.6821-.341-.17053,0-.6821-.17053-1.02316-.17053C49.70746,74.4791,49.53693,74.4791,49.53693,74.64962Zm2.89894,16.19993a.17053.17053,0,0,1-.34106,0V90.338a.59539.59539,0,0,0-.17052-.341l-.17053.17052c0,.51158-.17053,1.02315-.17053,1.53473,0,.17053-.17052.34106.17053.51158.17053.17052.34105,0,.51158-.17052s.341-.17053.51157-.34106a.88856.88856,0,0,0,.17052-1.3642C52.43587,90.5085,52.43587,90.679,52.43587,90.84955Zm2.38736,1.70525a1.27782,1.27782,0,0,0-.17053.85263c.17053.17052.17053.17052.34106.17052l.341-.341a2.50381,2.50381,0,0,0,.17052-2.21683c-.17052-.17052-.17052-.34105-.34105-.34105a.62645.62645,0,0,0-.17052.51157A1.03213,1.03213,0,0,1,54.82323,92.5548ZM43.90959,82.66432c0,.17053.17052.34106.341.17053s.51158-.17053.51158-.51158c0-.17052,0-.51157-.17053-.51157-.6821,0-.6821-.17053-.51158-.51158V81.1296c-.17052-.17053,0-.51158-.341-.51158s-.34105.17053-.34105.51158A8.029,8.029,0,0,0,43.90959,82.66432Zm12.27784,6.30945a1.02526,1.02526,0,0,0-.17052.6821c-.17053.17053-.17053.17053,0,.34106s.17052,0,.17052-.17053a3.42766,3.42766,0,0,0,.6821-1.3642,2.52842,2.52842,0,0,0,.17053-1.19368A7.85934,7.85934,0,0,1,56.18743,88.97377ZM44.08011,77.54856c.17053,0,.51158-.51158.51158-.85263,0-.17052-.17053-.51157-.34105-.51157a.76869.76869,0,0,0-.51158.51157A.61886.61886,0,0,0,44.08011,77.54856Zm1.19368,2.55788c-.17052.17052-.51157.17052-.51157.51158a.7687.7687,0,0,0,.51157.51157c.17053,0,.34105-.17052.34105-.51157C45.78537,80.44749,45.78537,80.10644,45.27379,80.10644Zm.85263,4.43367a.36675.36675,0,0,0-.34105.341c0,.17053.34105.6821.51157.6821s.34105-.17052.34105-.51157C46.80852,84.88115,46.46747,84.54011,46.12642,84.54011ZM42.20433,77.037a.54449.54449,0,0,0-.51157.51158c0,.17052.17052.51157.34105.51157.17053.17053.51158-.17052.51158-.51157C42.71591,77.20751,42.54539,77.037,42.20433,77.037Zm2.89894.68211a.76117.76117,0,0,0-.51158.6821.36677.36677,0,0,0,.34106.341.54448.54448,0,0,0,.51157-.51157C45.44432,77.88961,45.44432,77.71909,45.10327,77.71909Zm4.43366,8.35574c-.17053,0-.51157,0-.51157.34106a.54448.54448,0,0,0,.51157.51157c.17053,0,.34105-.17052.34105-.51157C49.70746,86.24536,49.70746,85.90431,49.53693,86.07483Zm-4.09261-2.0463a.62648.62648,0,0,0,.17052-.51158.45217.45217,0,0,0-.51157-.51157c-.34105,0-.34105.341-.34105.51157S45.10327,84.19906,45.44432,84.02853Zm.6821-7.84417c0-.17053-.17053-.17053-.34105-.17053-.17053.17053-.17053.17053-.17053.341s0,.17053.17053.34106.17052.34105.34105.34105c.341-.17052.17053-.34105.17053-.51158C46.12642,76.69593,46.12642,76.35488,46.12642,76.18436ZM43.398,78.06013a.45217.45217,0,0,0-.51157.51158c0,.34105.17052.51157.34105.51157.341,0,.341-.341.341-.51157S43.56854,78.06013,43.398,78.06013Zm-1.87578-4.43366c-.17052,0-.51157-.17052-.51157,0-.17053.17053.17052.341.341.51158.34105.341.85263,0,1.19368.17052C42.03381,74.30858,41.86328,73.96752,41.52223,73.62647Z"/><path class="cls-1" d="M44.93274,70.216a1.28123,1.28123,0,0,1-1.19368,1.19368,1.19368,1.19368,0,1,1,0-2.38736A1.07724,1.07724,0,0,1,44.93274,70.216Z"/><path class="cls-1" d="M91.82726,50.94658a9.68277,9.68277,0,0,1,3.75157,1.19368c.17052,0,.51157.34105.51157,0,.341-.341,0-.51157-.17052-.6821A6.61939,6.61939,0,0,0,93.362,49.58238c-1.53474-.85263-3.41052-1.53473-5.11577-2.38736a13.32457,13.32457,0,0,1-3.581-2.72841A15.649,15.649,0,0,0,75.45681,40.033c-.6821,0-1.53473-.17053-2.38736-.17053-.34105,0-.51157-.17052-.51157-.34105A29.04457,29.04457,0,0,0,70,35.76981h0c-.34106.51157-1.87578,3.581-2.21684,4.09261a.91374.91374,0,0,1-.6821.51157,17.19711,17.19711,0,0,0-10.57259,3.92209,13.02236,13.02236,0,0,1-1.53473,1.53473A27.43849,27.43849,0,0,1,50.219,48.72974a26.89421,26.89421,0,0,0-4.43367,2.21683,9.37274,9.37274,0,0,0-1.53473,1.19368c-.17052.17053-.34105.34106-.17052.51158.17052.34105.51157.17052.51157,0a14.09294,14.09294,0,0,1,3.75157-1.3642c.34105,0,.51157,0,.6821.17052l19.95149,8.18523c.34105.17052.51157.17052.51157.51157v6.821H70a.62643.62643,0,0,1,.51157.17053V61.34863c0-.51158-.17052-1.19368.17053-1.53473a1.93626,1.93626,0,0,1,1.3642-.51158c6.30945-2.55788,12.61889-5.28629,18.92833-7.84417h.85264Zm-26.943-10.23153c.6821,0,1.3642-.17053,2.04631-.17053.34105,0,.51157.17053.51157.34106.51158.85262.85263,1.53472,1.36421,2.38735.17052.17053.17052.341-.17053.341h-.85263c-.85262,0-1.70525.17053-2.55788.17053-.341.17053-.51157.17053-.51157-.341a4.90923,4.90923,0,0,0-.17053-2.21683C64.37265,40.88557,64.54318,40.71505,64.88423,40.71505Zm-2.04631.34105c.85263-.34105,1.02315-.17053,1.19368.6821a3.32575,3.32575,0,0,1-.17052,2.21683,5.67646,5.67646,0,0,0-.51158-1.02315c-.17052-.51158-.51157-1.02316-.6821-1.53473C62.83792,41.39715,62.6674,41.22662,62.83792,41.0561Zm-5.28629,2.72841a17.22317,17.22317,0,0,1,4.26314-2.38736.62646.62646,0,0,1,.51158.17053A4.64724,4.64724,0,0,1,63.3495,43.614c0,.34106,0,.51158-.34106.51158a37.63024,37.63024,0,0,0-4.60419,2.04631c-.341.17052-.51157.17052-.51157-.17053a2.24045,2.24045,0,0,1-.51158-1.70525C57.04006,44.12556,57.21058,44.12556,57.55163,43.78451ZM56.358,44.80766c.17053,0,.17053.17053,0,0,.17052.6821.341,1.19368.51158,1.70526a.31974.31974,0,0,1,0,.51157c-.17053.17053-.17053,0-.34106-.17052a4.21339,4.21339,0,0,1-.6821-1.53473C56.0169,45.31924,56.18743,44.80766,56.358,44.80766ZM49.02536,50.435c-.34106.17053-.34106-.17052-.51158-.34105,0-.17053-.17053-.34105.17053-.51158s.51157-.341.85262-.51157a19.12979,19.12979,0,0,0,5.62735-3.41051c.17052-.17053.34105-.17053.51157.17053l.51158,1.02315c.17052.34105.17052.51157-.17052.51157A12.38074,12.38074,0,0,1,50.219,49.7529C49.878,50.26448,49.36641,50.26448,49.02536,50.435Zm20.63358,8.0147c0,.6821,0,.6821-.51157.51157-5.79787-2.38736-11.42521-4.77471-17.22308-7.16207-.6821-.341-1.36421-.51157-2.04631-.85263a6.05889,6.05889,0,0,1,1.70525-.34105,18.8921,18.8921,0,0,0,4.94524-2.38735,26.93432,26.93432,0,0,1,9.72-4.09262,8.32,8.32,0,0,1,2.89894-.17052c.51157,0,.51157.34105.51157.6821ZM84.83572,46.00134c.17052-.341.34105-.341.51157-.17053a25.277,25.277,0,0,0,6.30945,3.581c.341.341.341.51157.17052.6821s-.17052.17053-.51157.17053a18.26543,18.26543,0,0,1-6.821-2.55789c-.34106-.341-.34106-.341-.17053-.51157C84.49467,46.68344,84.6652,46.51292,84.83572,46.00134Zm-1.53473.51158c.17052-.51158.341-.85263.51157-1.36421,0-.17052,0-.51157.17052-.51157a.45217.45217,0,0,1,.51158.51157A3.99781,3.99781,0,0,1,83.642,46.854H83.301c-.17052,0-.17052,0-.17052-.17053Zm-4.77472-4.94524A15.11983,15.11983,0,0,1,82.78941,43.955c.17052.17053.341.34106.341.51158a2.88083,2.88083,0,0,1-.51157,1.70525c-.17053.34106-.341.34106-.51158.17053-1.53473-.6821-3.24-1.53473-4.77471-2.04631-.341-.17052-.341-.34105-.341-.51157a5.25493,5.25493,0,0,1,1.19368-2.38736C78.35575,41.39715,78.35575,41.56768,78.52627,41.56768Zm-2.38735.341c.17052-.85263.341-.85263,1.3642-.51158.17052,0,.34105.17053.17052.341A10.41874,10.41874,0,0,0,76.48,44.12556a5.03657,5.03657,0,0,1-.341-2.21683ZM71.3642,43.10241c.51157-.68211.85263-1.53473,1.3642-2.21683A1.27325,1.27325,0,0,1,73.24,40.374c.85262.17053,1.53473.17053,2.0463.341.17053,0,.51158.17053.34106.51158a5.47449,5.47449,0,0,0-.17053,2.38735c0,.34106,0,.34106-.34105.34106a12.7673,12.7673,0,0,0-3.581-.34106C71.19368,43.614,71.19368,43.44346,71.3642,43.10241ZM82.27784,54.18656c-3.75157,1.53473-7.67365,3.24-11.42522,4.77472-.51157.341-.51157.341-.51157-.34105V45.14871c0-.85262.17052-1.02315,1.02315-1.02315a13.69048,13.69048,0,0,1,5.28629.6821,28.73959,28.73959,0,0,1,7.33259,3.41051A12.38084,12.38084,0,0,0,89.781,50.60553c.17052,0,.34105.17052.51157.17052C87.73465,51.96973,85.17677,52.99289,82.27784,54.18656Z"/></svg>